<svg width="329" height="69" viewBox="0 0 329 69" fill="none" xmlns="http://www.w3.org/2000/svg">
<mask id="path-1-outside-1_1352_856" maskUnits="userSpaceOnUse" x="9" y="14" width="308" height="44" fill="black">
<rect fill="white" x="9" y="14" width="308" height="44"/>
<path d="M28.3203 40.2832C28.4831 40.2832 28.6296 40.2425 28.7598 40.1611V37.9395C29.8665 37.1908 31.4128 36.5804 33.3984 36.1084C35.4004 35.6364 37.3454 35.4004 39.2334 35.4004C40.096 36.2793 40.8122 37.5977 41.3818 39.3555C41.9678 41.097 42.277 42.6758 42.3096 44.0918C41.984 44.7428 41.4307 45.4427 40.6494 46.1914C39.8844 46.9401 38.9567 47.6318 37.8662 48.2666C35.1644 49.8617 32.0638 50.6592 28.5645 50.6592C23.5514 50.6592 19.6045 49.2025 16.7236 46.2891C13.7451 43.3431 12.2559 39.266 12.2559 34.0576C12.2559 28.833 13.8835 24.7314 17.1387 21.7529C18.571 20.4183 20.2393 19.4173 22.1436 18.75C24.0479 18.0664 26.0498 17.7246 28.1494 17.7246C32.251 17.7246 35.612 18.7174 38.2324 20.7031C40.8529 22.6888 42.1631 25.1383 42.1631 28.0518C42.1631 30.249 41.4876 31.8766 40.1367 32.9346C38.7858 33.9762 36.9548 34.4971 34.6436 34.4971C33.374 34.4971 32.0964 34.1878 30.8105 33.5693C29.5247 32.9346 28.7598 32.3405 28.5156 31.7871C28.5156 30.4525 28.54 29.4027 28.5889 28.6377C28.5563 28.6214 28.4993 28.6133 28.418 28.6133H28.2471C28.0029 28.6133 27.8076 28.6865 27.6611 28.833C27.5309 28.9632 27.4089 29.248 27.2949 29.6875C27.1973 30.127 27.1484 31.3232 27.1484 33.2764C27.1484 37.9476 27.5391 40.2832 28.3203 40.2832ZM57.959 22.9248V48.1445C57.2103 48.7956 56.2093 49.3408 54.9561 49.7803C53.7028 50.2197 52.181 50.4395 50.3906 50.4395C48.6003 50.4395 47.0785 50.0407 45.8252 49.2432C44.4092 48.3805 43.7012 47.1598 43.7012 45.5811V20.3613C44.4499 19.7103 45.4508 19.165 46.7041 18.7256C47.9574 18.2861 49.471 18.0664 51.2451 18.0664C53.0192 18.0664 54.5573 18.457 55.8594 19.2383C57.2591 20.1335 57.959 21.3623 57.959 22.9248ZM59.7656 45.4834V21.0205C59.7656 20.1742 60.4411 19.4743 61.792 18.9209C63.1592 18.3512 64.7624 18.0664 66.6016 18.0664C67.6432 18.0664 68.6198 18.1966 69.5312 18.457C70.459 18.7012 71.167 19.0186 71.6553 19.4092C72.3226 20.2555 72.9329 21.1182 73.4863 21.9971C74.0397 22.876 75.2848 24.9268 77.2217 28.1494C77.4007 28.1494 77.5635 28.0924 77.71 27.9785C77.8564 27.8646 77.9297 27.6937 77.9297 27.4658C77.9297 27.2217 77.7262 26.7578 77.3193 26.0742L74.6826 21.5332V20.1904C75.5127 19.5068 76.5218 18.9779 77.71 18.6035C78.8981 18.2292 80.127 18.042 81.3965 18.042C83.4635 18.042 85.1318 18.4163 86.4014 19.165C87.8825 20.0602 88.623 21.46 88.623 23.3643V46.4844C88.623 47.8841 87.9557 48.9014 86.6211 49.5361C85.4818 50.1058 83.96 50.3906 82.0557 50.3906C80.9977 50.3906 79.9642 50.2767 78.9551 50.0488C77.9622 49.821 77.181 49.528 76.6113 49.1699C75.4557 47.6888 74.3083 46.0286 73.1689 44.1895L70.6787 40.0391C70.2067 40.1042 69.9707 40.3564 69.9707 40.7959C69.9707 41.0726 70.2067 41.6016 70.6787 42.3828L73.7305 47.3145V48.6084C71.8424 49.8291 69.7103 50.4395 67.334 50.4395C64.974 50.4395 63.1185 50.0081 61.7676 49.1455C60.4329 48.2829 59.7656 47.0622 59.7656 45.4834ZM101.416 18.5059H115.503C115.975 19.2871 116.325 20.1416 116.553 21.0693C116.781 21.9808 116.895 22.8027 116.895 23.5352C116.895 25.179 116.569 26.416 115.918 27.2461C115.283 28.0762 114.388 28.4912 113.232 28.4912H103.394C102.791 28.4912 102.49 28.7272 102.49 29.1992V29.3945C102.49 29.4922 102.507 29.5573 102.539 29.5898H114.209C114.502 30.0944 114.754 30.7292 114.966 31.4941C115.161 32.3242 115.259 33.0648 115.259 33.7158C115.259 35.6527 114.901 37.1663 114.185 38.2568H108.887C106.413 38.2568 104.736 38.3545 103.857 38.5498C102.979 38.7288 102.433 38.8835 102.222 39.0137C102.01 39.1602 101.904 39.3473 101.904 39.5752C101.904 39.8031 102.018 39.9821 102.246 40.1123C103.092 39.8356 103.979 39.6403 104.907 39.5264C106.128 39.4124 107.454 39.3555 108.887 39.3555H115.747C116.74 40.7552 117.236 42.4398 117.236 44.4092C117.236 45.516 117.098 46.5739 116.821 47.583C116.545 48.5921 116.13 49.4059 115.576 50.0244H97.29C95.2718 50.0244 93.6523 49.5361 92.4316 48.5596C91.097 47.5179 90.4297 45.988 90.4297 43.9697V20.752C90.4297 19.9707 91.3249 19.401 93.1152 19.043C94.9056 18.6849 97.6725 18.5059 101.416 18.5059Z"/>
<path d="M142.432 41.1133C142.969 41.0156 143.237 40.7471 143.237 40.3076C143.237 39.8519 143.091 39.3473 142.798 38.7939C142.521 38.2243 142.106 37.6872 141.553 37.1826C140.104 35.8805 138.143 35.2295 135.669 35.2295C134.448 35.2295 133.309 35.4329 132.251 35.8398C131.128 35.2702 130.233 34.3669 129.565 33.1299C128.898 31.8929 128.564 30.5583 128.564 29.126C128.564 25.3825 130.127 22.4935 133.252 20.459C135.938 18.7174 139.25 17.8467 143.188 17.8467C146.118 17.8467 148.584 18.1641 150.586 18.7988C152.588 19.4173 154.224 20.2148 155.493 21.1914C155.868 22.2656 156.055 23.3805 156.055 24.5361C156.055 25.6917 155.9 26.7415 155.591 27.6855C155.282 28.6296 154.834 29.3864 154.248 29.9561C153.695 29.5492 152.694 29.1341 151.245 28.7109C149.797 28.2878 148.478 28.0762 147.29 28.0762C146.102 28.0762 145.304 28.1494 144.897 28.2959C144.507 28.4424 144.312 28.6702 144.312 28.9795C144.312 29.126 144.336 29.2643 144.385 29.3945C144.954 29.248 145.687 29.1748 146.582 29.1748C149.756 29.1748 152.344 29.9235 154.346 31.4209C156.706 33.2113 157.886 35.8968 157.886 39.4775C157.886 42.6351 156.608 45.2555 154.053 47.3389C151.286 49.5687 147.567 50.6836 142.896 50.6836C140.324 50.6836 138.094 50.4883 136.206 50.0977C134.318 49.7233 132.479 49.056 130.688 48.0957C129.468 46.3216 128.857 44.5231 128.857 42.7002C128.857 40.861 129.484 39.3392 130.737 38.1348C131.991 36.9303 133.529 36.3281 135.352 36.3281C137.191 36.3281 138.688 36.7025 139.844 37.4512C141.016 38.1999 141.878 39.4206 142.432 41.1133ZM172.095 38.4521C172.095 38.7288 172.225 38.916 172.485 39.0137C172.876 38.5742 173.429 38.1917 174.146 37.8662C174.862 37.5244 175.667 37.3535 176.562 37.3535C178.271 37.3535 179.688 37.8581 180.811 38.8672C180.811 38.8672 180.868 38.916 180.981 39.0137C181.193 38.8997 181.299 38.6963 181.299 38.4033C181.299 37.8988 180.9 37.4186 180.103 36.9629C179.175 36.4583 177.987 36.2061 176.538 36.2061C176.147 36.2061 175.789 36.2386 175.464 36.3037V29.9316C175.464 29.2318 175.22 28.8818 174.731 28.8818C174.259 28.8818 174.023 29.2399 174.023 29.9561V36.6455C172.738 37.1663 172.095 37.7686 172.095 38.4521ZM174.097 50.0244C171.281 50.0244 168.726 49.4954 166.431 48.4375C164.136 47.3633 162.305 45.7113 160.938 43.4814C159.408 40.9587 158.643 37.8174 158.643 34.0576C158.643 30.2979 159.424 27.1322 160.986 24.5605C162.386 22.2493 164.282 20.5322 166.675 19.4092C169.084 18.2861 171.672 17.7246 174.438 17.7246C179.484 17.7246 183.439 19.2057 186.304 22.168C189.185 25.1139 190.625 28.9714 190.625 33.7402C190.625 36.6536 190.007 39.209 188.77 41.4062H192.31C192.896 43.1641 193.188 44.8242 193.188 46.3867C193.188 48.763 192.529 50.6755 191.211 52.124C189.893 53.5726 188.053 54.2969 185.693 54.2969C183.333 54.2969 181.372 53.5156 179.81 51.9531C178.263 50.4069 177.002 47.9574 176.025 44.6045H175.903C175.382 44.6045 175.122 44.8649 175.122 45.3857C175.122 46.3623 175.667 47.8597 176.758 49.8779C175.911 49.9756 175.024 50.0244 174.097 50.0244ZM214.014 18.0664C215.967 18.0664 217.66 18.5954 219.092 19.6533C220.524 20.7113 221.24 22.2168 221.24 24.1699V37.7441C221.24 41.8783 219.979 45.0684 217.456 47.3145C214.933 49.5443 211.442 50.6592 206.982 50.6592C202.539 50.6592 199.08 49.5605 196.606 47.3633C194.084 45.166 192.822 41.9596 192.822 37.7441V20.3369C194.743 18.807 196.965 18.042 199.487 18.042C201.603 18.042 203.28 18.6035 204.517 19.7266C205.754 20.8333 206.372 22.5179 206.372 24.7803V39.0137C206.551 39.1439 206.755 39.209 206.982 39.209C207.227 39.209 207.397 39.152 207.495 39.0381C207.609 38.9079 207.666 38.6719 207.666 38.3301V24.7559C207.666 23.7305 207.617 22.9167 207.52 22.3145C207.422 21.7122 207.227 21.11 206.934 20.5078C208.887 18.8802 211.247 18.0664 214.014 18.0664ZM237.231 33.96C237.362 34.0902 237.565 34.1553 237.842 34.1553C238.118 34.1553 238.354 34.0983 238.55 33.9844C238.127 31.5104 237.842 30.0456 237.695 29.5898C237.516 29.1178 237.248 28.8818 236.89 28.8818C236.727 28.8818 236.532 28.9307 236.304 29.0283L237.231 33.96ZM232.397 41.2842C232.235 41.512 232.153 41.7236 232.153 41.9189C232.153 42.391 232.593 42.7897 233.472 43.1152C234.367 43.4245 235.449 43.6198 236.719 43.7012C236.93 46.0449 237.158 47.3796 237.402 47.7051C237.093 48.3073 236.239 48.9176 234.839 49.5361C233.439 50.1383 231.86 50.4395 230.103 50.4395C227.775 50.4395 225.781 49.943 224.121 48.9502C222.461 47.9411 221.631 46.6471 221.631 45.0684C221.631 44.6452 221.672 44.2708 221.753 43.9453L226.953 20.7031C228.255 19.873 229.81 19.222 231.616 18.75C233.423 18.278 235.303 18.042 237.256 18.042C240.055 18.042 242.448 18.514 244.434 19.458C246.696 20.5322 248.071 22.0866 248.56 24.1211L254.126 47.1436C252.433 49.3408 249.674 50.4395 245.85 50.4395C243.994 50.4395 242.424 50.1058 241.138 49.4385C239.852 48.7712 239.103 47.819 238.892 46.582L238.354 43.6035C239.331 43.5872 240.275 43.4001 241.187 43.042C242.098 42.6839 242.554 42.3096 242.554 41.9189C242.554 41.6585 242.448 41.4469 242.236 41.2842C241.618 41.7236 240.861 42.0573 239.966 42.2852C239.071 42.513 238.241 42.627 237.476 42.627C235.278 42.627 233.586 42.1794 232.397 41.2842ZM268.53 32.6416C268.595 32.6904 268.783 32.7148 269.092 32.7148C269.401 32.7148 269.637 32.5928 269.8 32.3486C269.963 32.1045 270.044 31.7057 270.044 31.1523V30.2734C270.044 29.6875 269.971 29.2725 269.824 29.0283C269.694 28.7679 269.466 28.6377 269.141 28.6377C268.831 28.6377 268.62 28.6702 268.506 28.7354C268.522 28.8167 268.53 28.9551 268.53 29.1504V32.6416ZM281.128 38.208L285.352 42.5293C285.059 45.0684 284.253 47.0215 282.935 48.3887C281.632 49.7559 279.826 50.4395 277.515 50.4395C275.773 50.4395 274.259 50.0244 272.974 49.1943C271.33 48.1527 270.101 46.4925 269.287 44.2139L268.408 41.8213C267.725 41.805 266.862 41.7155 265.82 41.5527C265.69 41.6829 265.625 41.862 265.625 42.0898C265.625 42.5293 266.284 42.7897 267.603 42.8711L268.994 46.3867V48.4619C267.122 49.7803 264.722 50.4395 261.792 50.4395C259.692 50.4395 258.016 50.0081 256.763 49.1455C255.509 48.2829 254.883 47.0296 254.883 45.3857V22.1924C254.883 21.4762 255.542 20.7845 256.86 20.1172C258.179 19.4336 259.904 18.8883 262.036 18.4814C264.168 18.0583 266.3 17.8467 268.433 17.8467C273.315 17.8467 277.132 18.8477 279.883 20.8496C282.78 22.9492 284.229 25.9033 284.229 29.7119C284.229 31.8929 283.61 33.7646 282.373 35.3271C281.152 36.8734 279.606 37.9476 277.734 38.5498C277.734 39.0706 278.044 39.3311 278.662 39.3311C279.297 39.3311 280.119 38.9567 281.128 38.208ZM297.266 18.5059H311.353C311.825 19.2871 312.174 20.1416 312.402 21.0693C312.63 21.9808 312.744 22.8027 312.744 23.5352C312.744 25.179 312.419 26.416 311.768 27.2461C311.133 28.0762 310.238 28.4912 309.082 28.4912H299.243C298.641 28.4912 298.34 28.7272 298.34 29.1992V29.3945C298.34 29.4922 298.356 29.5573 298.389 29.5898H310.059C310.352 30.0944 310.604 30.7292 310.815 31.4941C311.011 32.3242 311.108 33.0648 311.108 33.7158C311.108 35.6527 310.75 37.1663 310.034 38.2568H304.736C302.262 38.2568 300.586 38.3545 299.707 38.5498C298.828 38.7288 298.283 38.8835 298.071 39.0137C297.86 39.1602 297.754 39.3473 297.754 39.5752C297.754 39.8031 297.868 39.9821 298.096 40.1123C298.942 39.8356 299.829 39.6403 300.757 39.5264C301.978 39.4124 303.304 39.3555 304.736 39.3555H311.597C312.59 40.7552 313.086 42.4398 313.086 44.4092C313.086 45.516 312.948 46.5739 312.671 47.583C312.394 48.5921 311.979 49.4059 311.426 50.0244H293.14C291.121 50.0244 289.502 49.5361 288.281 48.5596C286.947 47.5179 286.279 45.988 286.279 43.9697V20.752C286.279 19.9707 287.174 19.401 288.965 19.043C290.755 18.6849 293.522 18.5059 297.266 18.5059Z"/>
</mask>
<path d="M28.3203 40.2832C28.4831 40.2832 28.6296 40.2425 28.7598 40.1611V37.9395C29.8665 37.1908 31.4128 36.5804 33.3984 36.1084C35.4004 35.6364 37.3454 35.4004 39.2334 35.4004C40.096 36.2793 40.8122 37.5977 41.3818 39.3555C41.9678 41.097 42.277 42.6758 42.3096 44.0918C41.984 44.7428 41.4307 45.4427 40.6494 46.1914C39.8844 46.9401 38.9567 47.6318 37.8662 48.2666C35.1644 49.8617 32.0638 50.6592 28.5645 50.6592C23.5514 50.6592 19.6045 49.2025 16.7236 46.2891C13.7451 43.3431 12.2559 39.266 12.2559 34.0576C12.2559 28.833 13.8835 24.7314 17.1387 21.7529C18.571 20.4183 20.2393 19.4173 22.1436 18.75C24.0479 18.0664 26.0498 17.7246 28.1494 17.7246C32.251 17.7246 35.612 18.7174 38.2324 20.7031C40.8529 22.6888 42.1631 25.1383 42.1631 28.0518C42.1631 30.249 41.4876 31.8766 40.1367 32.9346C38.7858 33.9762 36.9548 34.4971 34.6436 34.4971C33.374 34.4971 32.0964 34.1878 30.8105 33.5693C29.5247 32.9346 28.7598 32.3405 28.5156 31.7871C28.5156 30.4525 28.54 29.4027 28.5889 28.6377C28.5563 28.6214 28.4993 28.6133 28.418 28.6133H28.2471C28.0029 28.6133 27.8076 28.6865 27.6611 28.833C27.5309 28.9632 27.4089 29.248 27.2949 29.6875C27.1973 30.127 27.1484 31.3232 27.1484 33.2764C27.1484 37.9476 27.5391 40.2832 28.3203 40.2832ZM57.959 22.9248V48.1445C57.2103 48.7956 56.2093 49.3408 54.9561 49.7803C53.7028 50.2197 52.181 50.4395 50.3906 50.4395C48.6003 50.4395 47.0785 50.0407 45.8252 49.2432C44.4092 48.3805 43.7012 47.1598 43.7012 45.5811V20.3613C44.4499 19.7103 45.4508 19.165 46.7041 18.7256C47.9574 18.2861 49.471 18.0664 51.2451 18.0664C53.0192 18.0664 54.5573 18.457 55.8594 19.2383C57.2591 20.1335 57.959 21.3623 57.959 22.9248ZM59.7656 45.4834V21.0205C59.7656 20.1742 60.4411 19.4743 61.792 18.9209C63.1592 18.3512 64.7624 18.0664 66.6016 18.0664C67.6432 18.0664 68.6198 18.1966 69.5312 18.457C70.459 18.7012 71.167 19.0186 71.6553 19.4092C72.3226 20.2555 72.9329 21.1182 73.4863 21.9971C74.0397 22.876 75.2848 24.9268 77.2217 28.1494C77.4007 28.1494 77.5635 28.0924 77.71 27.9785C77.8564 27.8646 77.9297 27.6937 77.9297 27.4658C77.9297 27.2217 77.7262 26.7578 77.3193 26.0742L74.6826 21.5332V20.1904C75.5127 19.5068 76.5218 18.9779 77.71 18.6035C78.8981 18.2292 80.127 18.042 81.3965 18.042C83.4635 18.042 85.1318 18.4163 86.4014 19.165C87.8825 20.0602 88.623 21.46 88.623 23.3643V46.4844C88.623 47.8841 87.9557 48.9014 86.6211 49.5361C85.4818 50.1058 83.96 50.3906 82.0557 50.3906C80.9977 50.3906 79.9642 50.2767 78.9551 50.0488C77.9622 49.821 77.181 49.528 76.6113 49.1699C75.4557 47.6888 74.3083 46.0286 73.1689 44.1895L70.6787 40.0391C70.2067 40.1042 69.9707 40.3564 69.9707 40.7959C69.9707 41.0726 70.2067 41.6016 70.6787 42.3828L73.7305 47.3145V48.6084C71.8424 49.8291 69.7103 50.4395 67.334 50.4395C64.974 50.4395 63.1185 50.0081 61.7676 49.1455C60.4329 48.2829 59.7656 47.0622 59.7656 45.4834ZM101.416 18.5059H115.503C115.975 19.2871 116.325 20.1416 116.553 21.0693C116.781 21.9808 116.895 22.8027 116.895 23.5352C116.895 25.179 116.569 26.416 115.918 27.2461C115.283 28.0762 114.388 28.4912 113.232 28.4912H103.394C102.791 28.4912 102.49 28.7272 102.49 29.1992V29.3945C102.49 29.4922 102.507 29.5573 102.539 29.5898H114.209C114.502 30.0944 114.754 30.7292 114.966 31.4941C115.161 32.3242 115.259 33.0648 115.259 33.7158C115.259 35.6527 114.901 37.1663 114.185 38.2568H108.887C106.413 38.2568 104.736 38.3545 103.857 38.5498C102.979 38.7288 102.433 38.8835 102.222 39.0137C102.01 39.1602 101.904 39.3473 101.904 39.5752C101.904 39.8031 102.018 39.9821 102.246 40.1123C103.092 39.8356 103.979 39.6403 104.907 39.5264C106.128 39.4124 107.454 39.3555 108.887 39.3555H115.747C116.74 40.7552 117.236 42.4398 117.236 44.4092C117.236 45.516 117.098 46.5739 116.821 47.583C116.545 48.5921 116.13 49.4059 115.576 50.0244H97.29C95.2718 50.0244 93.6523 49.5361 92.4316 48.5596C91.097 47.5179 90.4297 45.988 90.4297 43.9697V20.752C90.4297 19.9707 91.3249 19.401 93.1152 19.043C94.9056 18.6849 97.6725 18.5059 101.416 18.5059Z" fill="#8E00FD"/>
<path d="M142.432 41.1133C142.969 41.0156 143.237 40.7471 143.237 40.3076C143.237 39.8519 143.091 39.3473 142.798 38.7939C142.521 38.2243 142.106 37.6872 141.553 37.1826C140.104 35.8805 138.143 35.2295 135.669 35.2295C134.448 35.2295 133.309 35.4329 132.251 35.8398C131.128 35.2702 130.233 34.3669 129.565 33.1299C128.898 31.8929 128.564 30.5583 128.564 29.126C128.564 25.3825 130.127 22.4935 133.252 20.459C135.938 18.7174 139.25 17.8467 143.188 17.8467C146.118 17.8467 148.584 18.1641 150.586 18.7988C152.588 19.4173 154.224 20.2148 155.493 21.1914C155.868 22.2656 156.055 23.3805 156.055 24.5361C156.055 25.6917 155.9 26.7415 155.591 27.6855C155.282 28.6296 154.834 29.3864 154.248 29.9561C153.695 29.5492 152.694 29.1341 151.245 28.7109C149.797 28.2878 148.478 28.0762 147.29 28.0762C146.102 28.0762 145.304 28.1494 144.897 28.2959C144.507 28.4424 144.312 28.6702 144.312 28.9795C144.312 29.126 144.336 29.2643 144.385 29.3945C144.954 29.248 145.687 29.1748 146.582 29.1748C149.756 29.1748 152.344 29.9235 154.346 31.4209C156.706 33.2113 157.886 35.8968 157.886 39.4775C157.886 42.6351 156.608 45.2555 154.053 47.3389C151.286 49.5687 147.567 50.6836 142.896 50.6836C140.324 50.6836 138.094 50.4883 136.206 50.0977C134.318 49.7233 132.479 49.056 130.688 48.0957C129.468 46.3216 128.857 44.5231 128.857 42.7002C128.857 40.861 129.484 39.3392 130.737 38.1348C131.991 36.9303 133.529 36.3281 135.352 36.3281C137.191 36.3281 138.688 36.7025 139.844 37.4512C141.016 38.1999 141.878 39.4206 142.432 41.1133ZM172.095 38.4521C172.095 38.7288 172.225 38.916 172.485 39.0137C172.876 38.5742 173.429 38.1917 174.146 37.8662C174.862 37.5244 175.667 37.3535 176.562 37.3535C178.271 37.3535 179.688 37.8581 180.811 38.8672C180.811 38.8672 180.868 38.916 180.981 39.0137C181.193 38.8997 181.299 38.6963 181.299 38.4033C181.299 37.8988 180.9 37.4186 180.103 36.9629C179.175 36.4583 177.987 36.2061 176.538 36.2061C176.147 36.2061 175.789 36.2386 175.464 36.3037V29.9316C175.464 29.2318 175.22 28.8818 174.731 28.8818C174.259 28.8818 174.023 29.2399 174.023 29.9561V36.6455C172.738 37.1663 172.095 37.7686 172.095 38.4521ZM174.097 50.0244C171.281 50.0244 168.726 49.4954 166.431 48.4375C164.136 47.3633 162.305 45.7113 160.938 43.4814C159.408 40.9587 158.643 37.8174 158.643 34.0576C158.643 30.2979 159.424 27.1322 160.986 24.5605C162.386 22.2493 164.282 20.5322 166.675 19.4092C169.084 18.2861 171.672 17.7246 174.438 17.7246C179.484 17.7246 183.439 19.2057 186.304 22.168C189.185 25.1139 190.625 28.9714 190.625 33.7402C190.625 36.6536 190.007 39.209 188.77 41.4062H192.31C192.896 43.1641 193.188 44.8242 193.188 46.3867C193.188 48.763 192.529 50.6755 191.211 52.124C189.893 53.5726 188.053 54.2969 185.693 54.2969C183.333 54.2969 181.372 53.5156 179.81 51.9531C178.263 50.4069 177.002 47.9574 176.025 44.6045H175.903C175.382 44.6045 175.122 44.8649 175.122 45.3857C175.122 46.3623 175.667 47.8597 176.758 49.8779C175.911 49.9756 175.024 50.0244 174.097 50.0244ZM214.014 18.0664C215.967 18.0664 217.66 18.5954 219.092 19.6533C220.524 20.7113 221.24 22.2168 221.24 24.1699V37.7441C221.24 41.8783 219.979 45.0684 217.456 47.3145C214.933 49.5443 211.442 50.6592 206.982 50.6592C202.539 50.6592 199.08 49.5605 196.606 47.3633C194.084 45.166 192.822 41.9596 192.822 37.7441V20.3369C194.743 18.807 196.965 18.042 199.487 18.042C201.603 18.042 203.28 18.6035 204.517 19.7266C205.754 20.8333 206.372 22.5179 206.372 24.7803V39.0137C206.551 39.1439 206.755 39.209 206.982 39.209C207.227 39.209 207.397 39.152 207.495 39.0381C207.609 38.9079 207.666 38.6719 207.666 38.3301V24.7559C207.666 23.7305 207.617 22.9167 207.52 22.3145C207.422 21.7122 207.227 21.11 206.934 20.5078C208.887 18.8802 211.247 18.0664 214.014 18.0664ZM237.231 33.96C237.362 34.0902 237.565 34.1553 237.842 34.1553C238.118 34.1553 238.354 34.0983 238.55 33.9844C238.127 31.5104 237.842 30.0456 237.695 29.5898C237.516 29.1178 237.248 28.8818 236.89 28.8818C236.727 28.8818 236.532 28.9307 236.304 29.0283L237.231 33.96ZM232.397 41.2842C232.235 41.512 232.153 41.7236 232.153 41.9189C232.153 42.391 232.593 42.7897 233.472 43.1152C234.367 43.4245 235.449 43.6198 236.719 43.7012C236.93 46.0449 237.158 47.3796 237.402 47.7051C237.093 48.3073 236.239 48.9176 234.839 49.5361C233.439 50.1383 231.86 50.4395 230.103 50.4395C227.775 50.4395 225.781 49.943 224.121 48.9502C222.461 47.9411 221.631 46.6471 221.631 45.0684C221.631 44.6452 221.672 44.2708 221.753 43.9453L226.953 20.7031C228.255 19.873 229.81 19.222 231.616 18.75C233.423 18.278 235.303 18.042 237.256 18.042C240.055 18.042 242.448 18.514 244.434 19.458C246.696 20.5322 248.071 22.0866 248.56 24.1211L254.126 47.1436C252.433 49.3408 249.674 50.4395 245.85 50.4395C243.994 50.4395 242.424 50.1058 241.138 49.4385C239.852 48.7712 239.103 47.819 238.892 46.582L238.354 43.6035C239.331 43.5872 240.275 43.4001 241.187 43.042C242.098 42.6839 242.554 42.3096 242.554 41.9189C242.554 41.6585 242.448 41.4469 242.236 41.2842C241.618 41.7236 240.861 42.0573 239.966 42.2852C239.071 42.513 238.241 42.627 237.476 42.627C235.278 42.627 233.586 42.1794 232.397 41.2842ZM268.53 32.6416C268.595 32.6904 268.783 32.7148 269.092 32.7148C269.401 32.7148 269.637 32.5928 269.8 32.3486C269.963 32.1045 270.044 31.7057 270.044 31.1523V30.2734C270.044 29.6875 269.971 29.2725 269.824 29.0283C269.694 28.7679 269.466 28.6377 269.141 28.6377C268.831 28.6377 268.62 28.6702 268.506 28.7354C268.522 28.8167 268.53 28.9551 268.53 29.1504V32.6416ZM281.128 38.208L285.352 42.5293C285.059 45.0684 284.253 47.0215 282.935 48.3887C281.632 49.7559 279.826 50.4395 277.515 50.4395C275.773 50.4395 274.259 50.0244 272.974 49.1943C271.33 48.1527 270.101 46.4925 269.287 44.2139L268.408 41.8213C267.725 41.805 266.862 41.7155 265.82 41.5527C265.69 41.6829 265.625 41.862 265.625 42.0898C265.625 42.5293 266.284 42.7897 267.603 42.8711L268.994 46.3867V48.4619C267.122 49.7803 264.722 50.4395 261.792 50.4395C259.692 50.4395 258.016 50.0081 256.763 49.1455C255.509 48.2829 254.883 47.0296 254.883 45.3857V22.1924C254.883 21.4762 255.542 20.7845 256.86 20.1172C258.179 19.4336 259.904 18.8883 262.036 18.4814C264.168 18.0583 266.3 17.8467 268.433 17.8467C273.315 17.8467 277.132 18.8477 279.883 20.8496C282.78 22.9492 284.229 25.9033 284.229 29.7119C284.229 31.8929 283.61 33.7646 282.373 35.3271C281.152 36.8734 279.606 37.9476 277.734 38.5498C277.734 39.0706 278.044 39.3311 278.662 39.3311C279.297 39.3311 280.119 38.9567 281.128 38.208ZM297.266 18.5059H311.353C311.825 19.2871 312.174 20.1416 312.402 21.0693C312.63 21.9808 312.744 22.8027 312.744 23.5352C312.744 25.179 312.419 26.416 311.768 27.2461C311.133 28.0762 310.238 28.4912 309.082 28.4912H299.243C298.641 28.4912 298.34 28.7272 298.34 29.1992V29.3945C298.34 29.4922 298.356 29.5573 298.389 29.5898H310.059C310.352 30.0944 310.604 30.7292 310.815 31.4941C311.011 32.3242 311.108 33.0648 311.108 33.7158C311.108 35.6527 310.75 37.1663 310.034 38.2568H304.736C302.262 38.2568 300.586 38.3545 299.707 38.5498C298.828 38.7288 298.283 38.8835 298.071 39.0137C297.86 39.1602 297.754 39.3473 297.754 39.5752C297.754 39.8031 297.868 39.9821 298.096 40.1123C298.942 39.8356 299.829 39.6403 300.757 39.5264C301.978 39.4124 303.304 39.3555 304.736 39.3555H311.597C312.59 40.7552 313.086 42.4398 313.086 44.4092C313.086 45.516 312.948 46.5739 312.671 47.583C312.394 48.5921 311.979 49.4059 311.426 50.0244H293.14C291.121 50.0244 289.502 49.5361 288.281 48.5596C286.947 47.5179 286.279 45.988 286.279 43.9697V20.752C286.279 19.9707 287.174 19.401 288.965 19.043C290.755 18.6849 293.522 18.5059 297.266 18.5059Z" fill="#FEFEFE"/>
<path d="M28.7598 40.1611L30.3498 42.7051L31.7598 41.8239V40.1611H28.7598ZM28.7598 37.9395L27.0788 35.4546L25.7598 36.3469V37.9395H28.7598ZM33.3984 36.1084L32.71 33.1885L32.7047 33.1897L33.3984 36.1084ZM39.2334 35.4004L41.3745 33.299L40.4925 32.4004H39.2334V35.4004ZM41.3818 39.3555L38.528 40.2803L38.5331 40.2963L38.5385 40.3121L41.3818 39.3555ZM42.3096 44.0918L44.9929 45.4334L45.3259 44.7674L45.3088 44.0228L42.3096 44.0918ZM40.6494 46.1914L38.5737 44.0254L38.5623 44.0364L38.551 44.0474L40.6494 46.1914ZM37.8662 48.2666L36.357 45.6739L36.349 45.6785L36.3411 45.6832L37.8662 48.2666ZM16.7236 46.2891L18.8568 44.1797L18.8451 44.1678L18.8333 44.1561L16.7236 46.2891ZM17.1387 21.7529L19.1638 23.9662L19.1739 23.957L19.1838 23.9478L17.1387 21.7529ZM22.1436 18.75L23.1357 21.5812L23.1464 21.5774L23.1571 21.5736L22.1436 18.75ZM38.2324 20.7031L40.0443 18.3121L38.2324 20.7031ZM40.1367 32.9346L41.9686 35.3103L41.9775 35.3034L41.9864 35.2965L40.1367 32.9346ZM30.8105 33.5693L29.4825 36.2594L29.4963 36.2662L29.5101 36.2728L30.8105 33.5693ZM28.5156 31.7871H25.5156V32.4195L25.7709 32.998L28.5156 31.7871ZM28.5889 28.6377L31.5828 28.8288L31.7095 26.8439L29.9305 25.9544L28.5889 28.6377ZM27.6611 28.833L25.5398 26.7117L27.6611 28.833ZM27.2949 29.6875L24.3909 28.9346L24.3778 28.9854L24.3664 29.0367L27.2949 29.6875ZM28.3203 43.2832C29.0101 43.2832 29.7137 43.1027 30.3498 42.7051L27.1698 37.6171C27.5454 37.3824 27.9561 37.2832 28.3203 37.2832V43.2832ZM31.7598 40.1611V37.9395H25.7598V40.1611H31.7598ZM30.4407 40.4243C31.1324 39.9564 32.2927 39.4548 34.0922 39.0271L32.7047 33.1897C30.5329 33.706 28.6007 34.4251 27.0788 35.4546L30.4407 40.4243ZM34.0869 39.0283C35.8831 38.6048 37.5968 38.4004 39.2334 38.4004V32.4004C37.094 32.4004 34.9176 32.668 32.71 33.1885L34.0869 39.0283ZM37.0923 37.5018C37.5075 37.9247 38.0359 38.7621 38.528 40.2803L44.2357 38.4306C43.5884 36.4332 42.6846 34.6339 41.3745 33.299L37.0923 37.5018ZM38.5385 40.3121C39.055 41.8475 39.2865 43.1212 39.3104 44.1607L45.3088 44.0228C45.2676 42.2304 44.8805 40.3465 44.2252 38.3988L38.5385 40.3121ZM39.6263 42.7502C39.51 42.9827 39.2157 43.4102 38.5737 44.0254L42.7251 48.3574C43.6456 47.4752 44.4581 46.503 44.9929 45.4334L39.6263 42.7502ZM38.551 44.0474C37.9914 44.5952 37.2703 45.1422 36.357 45.6739L39.3754 50.8593C40.6431 50.1215 41.7775 49.285 42.7478 48.3354L38.551 44.0474ZM36.3411 45.6832C34.153 46.975 31.5907 47.6592 28.5645 47.6592V53.6592C32.5369 53.6592 36.1758 52.7483 39.3914 50.85L36.3411 45.6832ZM28.5645 47.6592C24.162 47.6592 21.0528 46.4004 18.8568 44.1797L14.5904 48.3984C18.1562 52.0045 22.9408 53.6592 28.5645 53.6592V47.6592ZM18.8333 44.1561C16.5563 41.904 15.2559 38.6712 15.2559 34.0576H9.25586C9.25586 39.8607 10.9339 44.7822 14.614 48.422L18.8333 44.1561ZM15.2559 34.0576C15.2559 29.5059 16.6443 26.2716 19.1638 23.9662L15.1135 19.5396C11.1226 23.1913 9.25586 28.1601 9.25586 34.0576H15.2559ZM19.1838 23.9478C20.3035 22.9045 21.6103 22.1157 23.1357 21.5812L21.1514 15.9188C18.8682 16.7189 16.8385 17.9321 15.0935 19.5581L19.1838 23.9478ZM23.1571 21.5736C24.7241 21.0111 26.3821 20.7246 28.1494 20.7246V14.7246C25.7175 14.7246 23.3716 15.1217 21.13 15.9264L23.1571 21.5736ZM28.1494 20.7246C31.7615 20.7246 34.4391 21.5927 36.4206 23.0942L40.0443 18.3121C36.7849 15.8422 32.7405 14.7246 28.1494 14.7246V20.7246ZM36.4206 23.0942C38.4025 24.5961 39.1631 26.2073 39.1631 28.0518H45.1631C45.1631 24.0694 43.3032 20.7815 40.0443 18.3121L36.4206 23.0942ZM39.1631 28.0518C39.1631 29.6092 38.7152 30.2373 38.287 30.5727L41.9864 35.2965C44.26 33.5159 45.1631 30.8888 45.1631 28.0518H39.1631ZM38.3048 30.5588C37.6375 31.0734 36.525 31.4971 34.6436 31.4971V37.4971C37.3846 37.4971 39.9341 36.8791 41.9686 35.3103L38.3048 30.5588ZM34.6436 31.4971C33.8772 31.4971 33.0416 31.3135 32.111 30.8658L29.5101 36.2728C31.1511 37.0621 32.8708 37.4971 34.6436 37.4971V31.4971ZM32.1385 30.8793C31.5992 30.613 31.2793 30.4078 31.1125 30.2783C31.0332 30.2167 31.0223 30.1981 31.0492 30.2286C31.0747 30.2577 31.1701 30.3717 31.2604 30.5762L25.7709 32.998C26.1797 33.9246 26.8689 34.5795 27.4324 35.0171C28.0306 35.4817 28.7361 35.8909 29.4825 36.2594L32.1385 30.8793ZM31.5156 31.7871C31.5156 30.4771 31.5399 29.5004 31.5828 28.8288L25.595 28.4466C25.5402 29.305 25.5156 30.4279 25.5156 31.7871H31.5156ZM29.9305 25.9544C29.2142 25.5963 28.5256 25.6133 28.418 25.6133V31.6133C28.3698 31.6133 28.2538 31.6116 28.0975 31.5892C27.9697 31.571 27.6368 31.5158 27.2472 31.321L29.9305 25.9544ZM28.418 25.6133H28.2471V31.6133H28.418V25.6133ZM28.2471 25.6133C27.3602 25.6133 26.3485 25.903 25.5398 26.7117L29.7825 30.9543C29.5507 31.1861 29.2713 31.3645 28.9709 31.4772C28.6796 31.5864 28.4246 31.6133 28.2471 31.6133V25.6133ZM25.5398 26.7117C25.0818 27.1697 24.8373 27.6759 24.7145 27.9625C24.5734 28.2917 24.4701 28.6292 24.3909 28.9346L30.1989 30.4404C30.2337 30.3064 30.2484 30.2817 30.2294 30.326C30.2186 30.3512 30.1872 30.4214 30.1286 30.5179C30.0726 30.6099 29.9631 30.7737 29.7825 30.9543L25.5398 26.7117ZM24.3664 29.0367C24.2517 29.5527 24.2111 30.2148 24.1876 30.792C24.1608 31.4481 24.1484 32.2809 24.1484 33.2764H30.1484C30.1484 32.3187 30.1605 31.5768 30.1826 31.0367C30.2078 30.4175 30.2405 30.2618 30.2235 30.3383L24.3664 29.0367ZM24.1484 33.2764C24.1484 35.6509 24.2448 37.6051 24.4825 39.0264C24.5964 39.7073 24.7777 40.496 25.1262 41.1907C25.4178 41.7718 26.3592 43.2832 28.3203 43.2832V37.2832C29.0434 37.2832 29.6231 37.5757 29.9941 37.8926C30.3181 38.1693 30.4574 38.4369 30.489 38.4999C30.5446 38.6106 30.4817 38.5234 30.4003 38.0366C30.2474 37.1223 30.1484 35.573 30.1484 33.2764H24.1484ZM57.959 48.1445L59.9275 50.4083L60.959 49.5114V48.1445H57.959ZM54.9561 49.7803L53.9634 46.9493L54.9561 49.7803ZM45.8252 49.2432L47.4358 46.7122L47.411 46.6964L47.386 46.6811L45.8252 49.2432ZM43.7012 20.3613L41.7326 18.0975L40.7012 18.9944V20.3613H43.7012ZM46.7041 18.7256L45.7114 15.8946L46.7041 18.7256ZM55.8594 19.2383L57.4757 16.7109L57.4396 16.6878L57.4029 16.6658L55.8594 19.2383ZM54.959 22.9248V48.1445H60.959V22.9248H54.959ZM55.9904 45.8807C55.6072 46.2139 54.9726 46.5954 53.9634 46.9493L55.9487 52.6113C57.446 52.0863 58.8133 51.3772 59.9275 50.4083L55.9904 45.8807ZM53.9634 46.9493C53.1186 47.2455 51.9529 47.4395 50.3906 47.4395V53.4395C52.4091 53.4395 54.287 53.194 55.9487 52.6113L53.9634 46.9493ZM50.3906 47.4395C49.0527 47.4395 48.1169 47.1456 47.4358 46.7122L44.2146 51.7741C46.04 52.9358 48.1478 53.4395 50.3906 53.4395V47.4395ZM47.386 46.6811C46.8092 46.3298 46.7012 46.0509 46.7012 45.5811H40.7012C40.7012 48.2688 42.0092 50.4313 44.2644 51.8052L47.386 46.6811ZM46.7012 45.5811V20.3613H40.7012V45.5811H46.7012ZM45.6697 22.6251C46.0529 22.2919 46.6875 21.9105 47.6968 21.5566L45.7114 15.8946C44.2142 16.4196 42.8468 17.1287 41.7326 18.0975L45.6697 22.6251ZM47.6968 21.5566C48.5441 21.2595 49.7027 21.0664 51.2451 21.0664V15.0664C49.2394 15.0664 47.3706 15.3128 45.7114 15.8946L47.6968 21.5566ZM51.2451 21.0664C52.5682 21.0664 53.5536 21.3534 54.3159 21.8108L57.4029 16.6658C55.561 15.5607 53.4702 15.0664 51.2451 15.0664V21.0664ZM54.243 21.7656C54.8463 22.1514 54.959 22.4611 54.959 22.9248H60.959C60.959 20.2635 59.6719 18.1155 57.4757 16.7109L54.243 21.7656ZM61.792 18.9209L62.9292 21.697L62.9375 21.6936L62.9458 21.6901L61.792 18.9209ZM69.5312 18.457L68.7071 21.3416L68.7373 21.3502L68.7678 21.3583L69.5312 18.457ZM71.6553 19.4092L74.0111 17.5517L73.798 17.2815L73.5294 17.0666L71.6553 19.4092ZM77.2217 28.1494L74.6503 29.6948L75.5246 31.1494H77.2217V28.1494ZM77.3193 26.0742L74.725 27.5806L74.7331 27.5947L74.7415 27.6087L77.3193 26.0742ZM74.6826 21.5332H71.6826V22.341L72.0883 23.0396L74.6826 21.5332ZM74.6826 20.1904L72.7755 17.8746L71.6826 18.7747V20.1904H74.6826ZM86.4014 19.165L87.9531 16.5976L87.9393 16.5892L87.9253 16.5809L86.4014 19.165ZM86.6211 49.5361L85.3326 46.8269L85.3059 46.8396L85.2795 46.8529L86.6211 49.5361ZM78.9551 50.0488L78.284 52.9728L78.2943 52.9752L78.9551 50.0488ZM76.6113 49.1699L74.2461 51.0153L74.5696 51.43L75.0148 51.7098L76.6113 49.1699ZM73.1689 44.1895L70.5965 45.7329L70.6074 45.7512L70.6186 45.7693L73.1689 44.1895ZM70.6787 40.0391L73.2512 38.4956L72.2317 36.7965L70.2688 37.0672L70.6787 40.0391ZM70.6787 42.3828L68.111 43.9342L68.1192 43.9478L68.1276 43.9614L70.6787 42.3828ZM73.7305 47.3145H76.7305V46.4613L76.2815 45.7358L73.7305 47.3145ZM73.7305 48.6084L75.3593 51.1277L76.7305 50.2412V48.6084H73.7305ZM61.7676 49.1455L60.1391 51.665L60.146 51.6695L60.153 51.674L61.7676 49.1455ZM62.7656 45.4834V21.0205H56.7656V45.4834H62.7656ZM62.7656 21.0205C62.7656 21.2209 62.723 21.4274 62.6414 21.6141C62.563 21.7936 62.4724 21.9011 62.4309 21.9442C62.3928 21.9837 62.3968 21.9684 62.4835 21.9149C62.5691 21.8619 62.7116 21.7861 62.9292 21.697L60.6548 16.1448C59.0638 16.7965 56.7656 18.2217 56.7656 21.0205H62.7656ZM62.9458 21.6901C63.8706 21.3048 65.0657 21.0664 66.6016 21.0664V15.0664C64.459 15.0664 62.4478 15.3977 60.6381 16.1517L62.9458 21.6901ZM66.6016 21.0664C67.3918 21.0664 68.0887 21.1649 68.7071 21.3416L70.3554 15.5725C69.1509 15.2283 67.8947 15.0664 66.6016 15.0664V21.0664ZM68.7678 21.3583C69.4853 21.5471 69.7474 21.7248 69.7812 21.7518L73.5294 17.0666C72.5865 16.3123 71.4327 15.8553 70.2947 15.5558L68.7678 21.3583ZM69.2995 21.2666C69.9037 22.0331 70.4527 22.8094 70.9476 23.5955L76.025 20.3986C75.4132 19.4269 74.7414 18.478 74.0111 17.5517L69.2995 21.2666ZM70.9476 23.5955C71.481 24.4426 72.7086 26.464 74.6503 29.6948L79.793 26.604C77.861 23.3895 76.5985 21.3094 76.025 20.3986L70.9476 23.5955ZM77.2217 31.1494C78.0936 31.1494 78.8994 30.854 79.5518 30.3466L75.8681 25.6105C76.2275 25.3309 76.7078 25.1494 77.2217 25.1494V31.1494ZM79.5518 30.3466C80.5957 29.5347 80.9297 28.3856 80.9297 27.4658H74.9297C74.9297 27.2627 74.9621 26.9452 75.1173 26.5831C75.2802 26.203 75.5399 25.8657 75.8681 25.6105L79.5518 30.3466ZM80.9297 27.4658C80.9297 26.6824 80.6519 26.0203 80.5245 25.7298C80.3534 25.3399 80.1326 24.9353 79.8972 24.5398L74.7415 27.6087C74.8238 27.747 74.8883 27.8617 74.9377 27.9546C74.9879 28.0489 75.0163 28.1091 75.0297 28.1398C75.0361 28.1542 75.0365 28.1563 75.0331 28.1472C75.03 28.1387 75.0203 28.1122 75.0082 28.0701C74.9964 28.029 74.9784 27.9596 74.9626 27.8669C74.9472 27.7763 74.9297 27.6385 74.9297 27.4658H80.9297ZM79.9137 24.5678L77.277 20.0268L72.0883 23.0396L74.725 27.5806L79.9137 24.5678ZM77.6826 21.5332V20.1904H71.6826V21.5332H77.6826ZM76.5897 22.5062C77.0795 22.1029 77.733 21.7416 78.6115 21.4649L76.8084 15.7422C75.3106 16.2141 73.9459 16.9108 72.7755 17.8746L76.5897 22.5062ZM78.6115 21.4649C79.5024 21.1842 80.4269 21.042 81.3965 21.042V15.042C79.8271 15.042 78.2939 15.2742 76.8084 15.7422L78.6115 21.4649ZM81.3965 21.042C83.1327 21.042 84.219 21.3609 84.8774 21.7491L87.9253 16.5809C86.0446 15.4718 83.7943 15.042 81.3965 15.042V21.042ZM84.8496 21.7325C85.3284 22.0219 85.623 22.3836 85.623 23.3643H91.623C91.623 20.5363 90.4365 18.0985 87.9531 16.5976L84.8496 21.7325ZM85.623 23.3643V46.4844H91.623V23.3643H85.623ZM85.623 46.4844C85.623 46.5954 85.6099 46.6502 85.6061 46.6641C85.6031 46.6749 85.6047 46.6659 85.6141 46.6516C85.6409 46.6108 85.6103 46.6949 85.3326 46.8269L87.9096 52.2453C88.9665 51.7426 89.9369 51.0006 90.631 49.9427C91.3316 48.8747 91.623 47.6786 91.623 46.4844H85.623ZM85.2795 46.8529C84.7116 47.1368 83.7056 47.3906 82.0557 47.3906V53.3906C84.2144 53.3906 86.2519 53.0748 87.9627 52.2194L85.2795 46.8529ZM82.0557 47.3906C81.215 47.3906 80.4033 47.3003 79.6159 47.1225L78.2943 52.9752C79.5251 53.2531 80.7805 53.3906 82.0557 53.3906V47.3906ZM79.6262 47.1248C78.8103 46.9376 78.386 46.742 78.2078 46.63L75.0148 51.7098C75.976 52.314 77.1141 52.7043 78.284 52.9728L79.6262 47.1248ZM78.9766 47.3245C77.8965 45.9401 76.81 44.3704 75.7193 42.6096L70.6186 45.7693C71.8065 47.6869 73.015 49.4375 74.2461 51.0153L78.9766 47.3245ZM75.7414 42.646L73.2512 38.4956L68.1062 41.5825L70.5965 45.7329L75.7414 42.646ZM70.2688 37.0672C69.6071 37.1585 68.6957 37.4378 67.9569 38.2276C67.1885 39.049 66.9707 40.0304 66.9707 40.7959H72.9707C72.9707 41.122 72.8709 41.7575 72.3385 42.3266C71.8357 42.8641 71.2783 42.9848 71.0886 43.0109L70.2688 37.0672ZM66.9707 40.7959C66.9707 41.6082 67.2655 42.3032 67.408 42.6225C67.5966 43.0451 67.8428 43.4904 68.111 43.9342L73.2465 40.8315C73.148 40.6685 73.0695 40.5313 73.0083 40.418C72.9462 40.3031 72.9083 40.2246 72.8874 40.1778C72.8643 40.1261 72.8744 40.1407 72.894 40.2074C72.9045 40.2432 72.922 40.3085 72.9375 40.3982C72.9527 40.4858 72.9707 40.6226 72.9707 40.7959H66.9707ZM68.1276 43.9614L71.1794 48.8931L76.2815 45.7358L73.2298 40.8042L68.1276 43.9614ZM70.7305 47.3145V48.6084H76.7305V47.3145H70.7305ZM72.1016 46.0891C70.7271 46.9778 69.1669 47.4395 67.334 47.4395V53.4395C70.2537 53.4395 72.9578 52.6804 75.3593 51.1277L72.1016 46.0891ZM67.334 47.4395C65.2918 47.4395 64.0738 47.0587 63.3821 46.617L60.153 51.674C62.1631 52.9576 64.6561 53.4395 67.334 53.4395V47.4395ZM63.3961 46.626C62.9097 46.3116 62.7656 46.0359 62.7656 45.4834H56.7656C56.7656 48.0884 57.9562 50.2541 60.1391 51.665L63.3961 46.626ZM115.503 18.5059L118.071 16.9545L117.195 15.5059H115.503V18.5059ZM116.553 21.0693L113.639 21.7849L113.642 21.7969L116.553 21.0693ZM115.918 27.2461L113.557 25.3947L113.546 25.4091L113.535 25.4237L115.918 27.2461ZM102.539 29.5898L100.418 31.7112L101.296 32.5898H102.539V29.5898ZM114.209 29.5898L116.803 28.0834L115.936 26.5898H114.209V29.5898ZM114.966 31.4941L117.886 30.807L117.873 30.7504L117.857 30.6944L114.966 31.4941ZM114.185 38.2568V41.2568H115.804L116.692 39.9036L114.185 38.2568ZM103.857 38.5498L104.456 41.4894L104.482 41.4841L104.508 41.4784L103.857 38.5498ZM102.222 39.0137L100.649 36.4587L100.581 36.5011L100.514 36.5471L102.222 39.0137ZM102.246 40.1123L100.758 42.717L101.913 43.3774L103.178 42.9638L102.246 40.1123ZM104.907 39.5264L104.628 36.5393L104.585 36.5434L104.542 36.5487L104.907 39.5264ZM115.747 39.3555L118.194 37.6198L117.297 36.3555H115.747V39.3555ZM115.576 50.0244V53.0244H116.918L117.812 52.0248L115.576 50.0244ZM92.4316 48.5596L94.3057 46.217L94.2917 46.2057L94.2775 46.1946L92.4316 48.5596ZM101.416 21.5059H115.503V15.5059H101.416V21.5059ZM112.935 20.0572C113.243 20.567 113.48 21.1378 113.639 21.7849L119.466 20.3538C119.169 19.1454 118.707 18.0072 118.071 16.9545L112.935 20.0572ZM113.642 21.7969C113.827 22.5337 113.895 23.1057 113.895 23.5352H119.895C119.895 22.4998 119.735 21.4278 119.463 20.3417L113.642 21.7969ZM113.895 23.5352C113.895 24.8604 113.619 25.3158 113.557 25.3947L118.279 29.0975C119.519 27.5162 119.895 25.4976 119.895 23.5352H113.895ZM113.535 25.4237C113.522 25.4402 113.513 25.4505 113.507 25.4563C113.505 25.4592 113.503 25.4612 113.501 25.4624C113.501 25.463 113.5 25.4634 113.5 25.4636C113.5 25.4639 113.499 25.464 113.499 25.464C113.499 25.464 113.5 25.4639 113.5 25.4637C113.5 25.4635 113.5 25.4633 113.501 25.463C113.502 25.4623 113.503 25.4616 113.504 25.4608C113.505 25.4601 113.506 25.4594 113.507 25.4589C113.508 25.4584 113.509 25.4582 113.509 25.4582C113.509 25.4583 113.508 25.4586 113.506 25.4593C113.504 25.46 113.502 25.461 113.498 25.4623C113.49 25.4649 113.476 25.4688 113.455 25.473C113.414 25.4814 113.342 25.4912 113.232 25.4912V31.4912C115.209 31.4912 117.033 30.7266 118.301 29.0684L113.535 25.4237ZM113.232 25.4912H103.394V31.4912H113.232V25.4912ZM103.394 25.4912C102.782 25.4912 101.771 25.5971 100.865 26.307C99.8205 27.126 99.4902 28.2795 99.4902 29.1992H105.49C105.49 29.6469 105.311 30.4464 104.567 31.0294C103.962 31.5034 103.402 31.4912 103.394 31.4912V25.4912ZM99.4902 29.1992V29.3945H105.49V29.1992H99.4902ZM99.4902 29.3945C99.4902 29.5882 99.5041 29.8927 99.592 30.2442C99.6753 30.5775 99.8799 31.1733 100.418 31.7112L104.66 27.4685C105.166 27.9739 105.346 28.5208 105.413 28.789C105.484 29.0754 105.49 29.2986 105.49 29.3945H99.4902ZM102.539 32.5898H114.209V26.5898H102.539V32.5898ZM111.615 31.0963C111.742 31.3156 111.908 31.6939 112.074 32.2939L117.857 30.6944C117.6 29.7644 117.262 28.8732 116.803 28.0834L111.615 31.0963ZM112.046 32.1813C112.203 32.8512 112.259 33.3546 112.259 33.7158H118.259C118.259 32.775 118.119 31.7972 117.886 30.807L112.046 32.1813ZM112.259 33.7158C112.259 35.3342 111.951 36.1921 111.677 36.61L116.692 39.9036C117.85 38.1406 118.259 35.9711 118.259 33.7158H112.259ZM114.185 35.2568H108.887V41.2568H114.185V35.2568ZM108.887 35.2568C106.448 35.2568 104.453 35.3442 103.207 35.6212L104.508 41.4784C105.019 41.3648 106.378 41.2568 108.887 41.2568V35.2568ZM103.259 35.6102C102.782 35.7072 102.345 35.8077 101.971 35.9139C101.684 35.9953 101.14 36.157 100.649 36.4587L103.794 41.5686C103.694 41.6302 103.615 41.6684 103.575 41.687C103.532 41.7069 103.505 41.7172 103.5 41.7192C103.492 41.7221 103.523 41.7104 103.608 41.6862C103.779 41.6377 104.054 41.5715 104.456 41.4894L103.259 35.6102ZM100.514 36.5471C99.6148 37.1697 98.9043 38.2236 98.9043 39.5752H104.904C104.904 39.9465 104.812 40.3562 104.595 40.7401C104.386 41.1107 104.123 41.346 103.929 41.4802L100.514 36.5471ZM98.9043 39.5752C98.9043 41.0621 99.7651 42.1498 100.758 42.717L103.735 37.5076C103.945 37.6279 104.261 37.862 104.521 38.2697C104.793 38.6973 104.904 39.1625 104.904 39.5752H98.9043ZM103.178 42.9638C103.831 42.7503 104.528 42.5955 105.273 42.504L104.542 36.5487C103.431 36.6851 102.353 36.921 101.314 37.2608L103.178 42.9638ZM105.186 42.5134C106.3 42.4094 107.532 42.3555 108.887 42.3555V36.3555C107.376 36.3555 105.956 36.4155 104.628 36.5393L105.186 42.5134ZM108.887 42.3555H115.747V36.3555H108.887V42.3555ZM113.3 41.0911C113.882 41.9112 114.236 42.9666 114.236 44.4092H120.236C120.236 41.913 119.598 39.5992 118.194 37.6198L113.3 41.0911ZM114.236 44.4092C114.236 45.2634 114.13 46.0536 113.928 46.7897L119.715 48.3763C120.066 47.0942 120.236 45.7685 120.236 44.4092H114.236ZM113.928 46.7897C113.743 47.4648 113.514 47.8299 113.34 48.024L117.812 52.0248C118.745 50.9819 119.346 49.7195 119.715 48.3763L113.928 46.7897ZM115.576 47.0244H97.29V53.0244H115.576V47.0244ZM97.29 47.0244C95.7523 47.0244 94.8565 46.6576 94.3057 46.217L90.5576 50.9022C92.4482 52.4147 94.7913 53.0244 97.29 53.0244V47.0244ZM94.2775 46.1946C93.8146 45.8333 93.4297 45.2625 93.4297 43.9697H87.4297C87.4297 46.7134 88.3794 49.2025 90.5858 50.9245L94.2775 46.1946ZM93.4297 43.9697V20.752H87.4297V43.9697H93.4297ZM93.4297 20.752C93.4297 21.1688 93.2992 21.5597 93.0983 21.8628C92.918 22.1349 92.7378 22.2532 92.7117 22.2698C92.6841 22.2873 92.7362 22.2502 92.9199 22.1868C93.0977 22.1253 93.3533 22.0548 93.7036 21.9847L92.5269 16.1012C91.4918 16.3082 90.3977 16.6304 89.4904 17.2078C88.5216 17.8243 87.4297 18.9852 87.4297 20.752H93.4297ZM93.7036 21.9847C95.189 21.6876 97.7095 21.5059 101.416 21.5059V15.5059C97.6355 15.5059 94.6222 15.6822 92.5269 16.1012L93.7036 21.9847ZM142.432 41.1133L139.58 42.0455L140.393 44.5331L142.968 44.0649L142.432 41.1133ZM142.798 38.7939L140.099 40.1047L140.122 40.1515L140.146 40.1976L142.798 38.7939ZM141.553 37.1826L143.574 34.9657L143.566 34.9586L143.558 34.9515L141.553 37.1826ZM132.251 35.8398L130.894 38.5153L132.083 39.1186L133.328 38.6399L132.251 35.8398ZM129.565 33.1299L132.206 31.7055L129.565 33.1299ZM133.252 20.459L131.62 17.9419L131.615 17.9449L133.252 20.459ZM150.586 18.7988L149.679 21.6585L149.69 21.6619L149.7 21.6652L150.586 18.7988ZM155.493 21.1914L158.326 20.2042L158.032 19.3591L157.322 18.8135L155.493 21.1914ZM154.248 29.9561L152.471 32.373L154.518 33.878L156.339 32.107L154.248 29.9561ZM144.897 28.2959L143.881 25.4732L143.863 25.48L143.844 25.4869L144.897 28.2959ZM144.385 29.3945L141.576 30.4479L142.522 32.9711L145.132 32.3L144.385 29.3945ZM154.346 31.4209L156.159 29.0308L156.151 29.0247L156.143 29.0186L154.346 31.4209ZM154.053 47.3389L155.935 49.6748L155.942 49.6694L155.948 49.664L154.053 47.3389ZM136.206 50.0977L136.814 47.1599L136.802 47.1574L136.79 47.1549L136.206 50.0977ZM130.688 48.0957L128.217 49.7963L128.629 50.3956L129.27 50.7394L130.688 48.0957ZM130.737 38.1348L132.816 40.2978L130.737 38.1348ZM139.844 37.4512L138.213 39.9689L138.221 39.9741L138.229 39.9793L139.844 37.4512ZM142.968 44.0649C143.586 43.9526 144.44 43.6767 145.157 42.9599C145.943 42.1741 146.237 41.1877 146.237 40.3076H140.237C140.237 39.867 140.397 39.2346 140.915 38.7173C141.363 38.2691 141.815 38.1763 141.895 38.1617L142.968 44.0649ZM146.237 40.3076C146.237 39.2141 145.89 38.2225 145.449 37.3903L140.146 40.1976C140.215 40.3268 140.24 40.4011 140.246 40.4238C140.253 40.4449 140.237 40.4021 140.237 40.3076H146.237ZM145.496 37.4832C145.026 36.515 144.358 35.6808 143.574 34.9657L139.531 39.3995C139.854 39.6936 140.016 39.9336 140.099 40.1047L145.496 37.4832ZM143.558 34.9515C141.422 33.0316 138.677 32.2295 135.669 32.2295V38.2295C137.609 38.2295 138.786 38.7294 139.547 39.4137L143.558 34.9515ZM135.669 32.2295C134.109 32.2295 132.601 32.4909 131.174 33.0398L133.328 38.6399C134.017 38.375 134.788 38.2295 135.669 38.2295V32.2295ZM133.608 33.1644C133.093 32.9029 132.618 32.4695 132.206 31.7055L126.925 34.5543C127.848 36.2642 129.163 37.6374 130.894 38.5153L133.608 33.1644ZM132.206 31.7055C131.779 30.9148 131.564 30.0709 131.564 29.126H125.564C125.564 31.0456 126.017 32.871 126.925 34.5543L132.206 31.7055ZM131.564 29.126C131.564 26.3923 132.618 24.4514 134.889 22.9731L131.615 17.9449C127.636 20.5356 125.564 24.3727 125.564 29.126H131.564ZM134.884 22.9761C136.982 21.6155 139.695 20.8467 143.188 20.8467V14.8467C138.804 14.8467 134.893 15.8194 131.62 17.9419L134.884 22.9761ZM143.188 20.8467C145.922 20.8467 148.061 21.1454 149.679 21.6585L151.493 15.9391C149.107 15.1827 146.314 14.8467 143.188 14.8467V20.8467ZM149.7 21.6652C151.461 22.209 152.75 22.8659 153.664 23.5693L157.322 18.8135C155.698 17.5638 153.715 16.6256 151.471 15.9325L149.7 21.6652ZM152.66 22.1786C152.922 22.9304 153.055 23.7112 153.055 24.5361H159.055C159.055 23.0498 158.813 21.6009 158.326 20.2042L152.66 22.1786ZM153.055 24.5361C153.055 25.4251 152.936 26.1537 152.74 26.7516L158.442 28.6195C158.864 27.3294 159.055 25.9583 159.055 24.5361H153.055ZM152.74 26.7516C152.55 27.3328 152.328 27.6391 152.157 27.8051L156.339 32.107C157.34 31.1337 158.014 29.9263 158.442 28.6195L152.74 26.7516ZM156.025 27.5391C155.014 26.7953 153.566 26.2636 152.086 25.8313L150.404 31.5906C151.061 31.7825 151.564 31.9576 151.933 32.1108C152.116 32.1867 152.251 32.2509 152.347 32.3014C152.445 32.3532 152.479 32.379 152.471 32.373L156.025 27.5391ZM152.086 25.8313C150.434 25.3487 148.828 25.0762 147.29 25.0762V31.0762C148.129 31.0762 149.159 31.2268 150.404 31.5906L152.086 25.8313ZM147.29 25.0762C146.161 25.0762 144.852 25.1238 143.881 25.4732L145.914 31.1186C145.811 31.1556 145.765 31.16 145.814 31.1511C145.856 31.1435 145.939 31.131 146.075 31.1185C146.351 31.0932 146.748 31.0762 147.29 31.0762V25.0762ZM143.844 25.4869C143.35 25.6721 142.711 26.0053 142.18 26.6243C141.601 27.2998 141.312 28.1325 141.312 28.9795H147.312C147.312 29.5172 147.119 30.0814 146.736 30.529C146.401 30.9201 146.054 31.0662 145.951 31.1049L143.844 25.4869ZM141.312 28.9795C141.312 29.4663 141.394 29.9632 141.576 30.4479L147.194 28.3412C147.278 28.5655 147.312 28.7856 147.312 28.9795H141.312ZM145.132 32.3C145.366 32.2399 145.822 32.1748 146.582 32.1748V26.1748C145.551 26.1748 144.543 26.2562 143.638 26.4891L145.132 32.3ZM146.582 32.1748C149.284 32.1748 151.191 32.8076 152.549 33.8232L156.143 29.0186C153.497 27.0394 150.227 26.1748 146.582 26.1748V32.1748ZM152.533 33.811C153.986 34.9136 154.886 36.616 154.886 39.4775H160.886C160.886 35.1776 159.425 31.509 156.159 29.0308L152.533 33.811ZM154.886 39.4775C154.886 41.6885 154.049 43.4711 152.157 45.0137L155.948 49.664C159.167 47.04 160.886 43.5817 160.886 39.4775H154.886ZM152.17 45.003C150.084 46.6842 147.099 47.6836 142.896 47.6836V53.6836C148.035 53.6836 152.488 52.4531 155.935 49.6748L152.17 45.003ZM142.896 47.6836C140.465 47.6836 138.448 47.4981 136.814 47.1599L135.598 53.0354C137.74 53.4785 140.183 53.6836 142.896 53.6836V47.6836ZM136.79 47.1549C135.209 46.8415 133.65 46.2796 132.106 45.452L129.27 50.7394C131.308 51.8323 133.427 52.6051 135.623 53.0404L136.79 47.1549ZM133.16 46.3952C132.22 45.0285 131.857 43.8121 131.857 42.7002H125.857C125.857 45.2341 126.716 47.6147 128.217 49.7963L133.16 46.3952ZM131.857 42.7002C131.857 41.6243 132.189 40.9009 132.816 40.2978L128.659 35.9717C126.78 37.7775 125.857 40.0977 125.857 42.7002H131.857ZM132.816 40.2978C133.481 39.6587 134.262 39.3281 135.352 39.3281V33.3281C132.795 33.3281 130.5 34.202 128.659 35.9717L132.816 40.2978ZM135.352 39.3281C136.802 39.3281 137.681 39.6244 138.213 39.9689L141.475 34.9334C139.696 33.7806 137.58 33.3281 135.352 33.3281V39.3281ZM138.229 39.9793C138.669 40.2605 139.181 40.8234 139.58 42.0455L145.283 40.1811C144.576 38.0178 143.362 36.1392 141.459 34.9231L138.229 39.9793ZM172.485 39.0137L171.432 41.8227L173.36 42.5456L174.728 41.0068L172.485 39.0137ZM174.146 37.8662L175.387 40.5973L175.412 40.5857L175.438 40.5737L174.146 37.8662ZM180.811 38.8672L178.805 41.0987L178.832 41.1221L178.858 41.145L180.811 38.8672ZM180.981 39.0137L179.029 41.2914L180.592 42.6308L182.404 41.6551L180.981 39.0137ZM180.103 36.9629L181.591 34.3582L181.564 34.3425L181.536 34.3274L180.103 36.9629ZM175.464 36.3037H172.464V39.9631L176.052 39.2455L175.464 36.3037ZM174.023 36.6455L175.15 39.4261L177.023 38.6671V36.6455H174.023ZM166.431 48.4375L165.159 51.1546L165.167 51.1583L165.175 51.1619L166.431 48.4375ZM160.938 43.4814L158.372 45.0371L158.376 45.0433L158.38 45.0496L160.938 43.4814ZM160.986 24.5605L163.55 26.1183L163.552 26.1147L160.986 24.5605ZM166.675 19.4092L165.407 16.6902L165.4 16.6935L166.675 19.4092ZM186.304 22.168L184.147 24.2534L184.153 24.2595L184.159 24.2655L186.304 22.168ZM188.77 41.4062L186.155 39.9345L183.638 44.4062H188.77V41.4062ZM192.31 41.4062L195.156 40.4576L194.472 38.4062H192.31V41.4062ZM191.211 52.124L188.992 50.1048L191.211 52.124ZM179.81 51.9531L181.931 49.8318L179.81 51.9531ZM176.025 44.6045L178.906 43.7656L178.276 41.6045H176.025V44.6045ZM176.758 49.8779L177.102 52.8582L181.504 52.3502L179.397 48.4518L176.758 49.8779ZM169.095 38.4521C169.095 39.0701 169.246 39.8178 169.73 40.5132C170.213 41.2075 170.859 41.6077 171.432 41.8227L173.539 36.2047C173.852 36.322 174.302 36.5798 174.655 37.0869C175.009 37.5951 175.095 38.1108 175.095 38.4521H169.095ZM174.728 41.0068C174.763 40.9673 174.93 40.805 175.387 40.5973L172.904 35.1351C171.929 35.5785 170.989 36.1812 170.243 37.0206L174.728 41.0068ZM175.438 40.5737C175.701 40.4478 176.057 40.3535 176.562 40.3535V34.3535C175.278 34.3535 174.022 34.601 172.853 35.1588L175.438 40.5737ZM176.562 40.3535C177.636 40.3535 178.306 40.6501 178.805 41.0987L182.816 36.6357C181.069 35.066 178.907 34.3535 176.562 34.3535V40.3535ZM180.811 38.8672C178.858 41.145 178.858 41.145 178.858 41.145C178.858 41.145 178.858 41.145 178.858 41.145C178.858 41.145 178.858 41.145 178.858 41.145C178.858 41.145 178.858 41.145 178.858 41.145C178.858 41.145 178.858 41.145 178.858 41.145C178.858 41.145 178.858 41.145 178.858 41.145C178.858 41.145 178.858 41.145 178.858 41.145C178.858 41.145 178.858 41.145 178.858 41.145C178.858 41.145 178.858 41.145 178.858 41.145C178.858 41.145 178.858 41.145 178.858 41.145C178.858 41.145 178.858 41.145 178.858 41.1451C178.858 41.1451 178.858 41.1451 178.858 41.1451C178.858 41.1451 178.858 41.1451 178.858 41.1451C178.858 41.1451 178.858 41.1451 178.858 41.1451C178.858 41.1451 178.858 41.1452 178.859 41.1453C178.859 41.1453 178.859 41.1454 178.859 41.1454C178.859 41.1454 178.859 41.1454 178.859 41.1455C178.859 41.1455 178.859 41.1455 178.859 41.1455C178.859 41.1457 178.859 41.146 178.86 41.1462C178.86 41.1465 178.86 41.1469 178.861 41.1472C178.863 41.1489 178.862 41.1481 178.864 41.1501C178.867 41.1525 178.866 41.1513 178.869 41.1541C178.87 41.1551 178.879 41.163 178.882 41.1656C178.885 41.1683 178.887 41.1699 178.891 41.173C178.891 41.1731 178.892 41.1739 178.892 41.174C178.893 41.1746 178.892 41.1739 178.893 41.1745C178.893 41.1746 178.893 41.1747 178.893 41.1748C178.893 41.1749 178.893 41.1749 178.893 41.175C178.895 41.1766 178.894 41.1755 178.896 41.1771C178.897 41.1778 178.9 41.1808 178.901 41.1816C178.915 41.1938 178.933 41.209 178.954 41.2274C178.98 41.2497 178.996 41.263 179.029 41.2914L182.934 36.7359C182.871 36.6816 182.84 36.6559 182.806 36.626C182.787 36.6098 182.785 36.6087 182.774 36.5986C182.77 36.5959 182.767 36.5929 182.766 36.5917C182.764 36.5906 182.764 36.5907 182.764 36.59C182.763 36.5899 182.763 36.5896 182.763 36.5896C182.763 36.5895 182.763 36.5895 182.763 36.5895C182.763 36.5895 182.763 36.5894 182.763 36.5894C182.763 36.5894 182.763 36.5894 182.763 36.5894C182.763 36.5894 182.763 36.5894 182.763 36.5894C182.763 36.5894 182.763 36.5894 182.763 36.5894C182.763 36.5894 182.763 36.5894 182.763 36.5894C182.763 36.5894 182.763 36.5894 180.811 38.8672ZM182.404 41.6551C183.817 40.8943 184.299 39.5121 184.299 38.4033H178.299C178.299 38.1981 178.335 37.8195 178.558 37.3916C178.796 36.9329 179.162 36.5861 179.559 36.3723L182.404 41.6551ZM184.299 38.4033C184.299 36.1635 182.558 34.9109 181.591 34.3582L178.614 39.5676C178.834 39.6935 178.803 39.7158 178.692 39.5815C178.553 39.4147 178.299 39.0051 178.299 38.4033H184.299ZM181.536 34.3274C180.035 33.5113 178.31 33.2061 176.538 33.2061V39.2061C177.663 39.2061 178.314 39.4054 178.669 39.5983L181.536 34.3274ZM176.538 33.2061C175.984 33.2061 175.425 33.252 174.876 33.362L176.052 39.2455C176.154 39.2252 176.311 39.2061 176.538 39.2061V33.2061ZM178.464 36.3037V29.9316H172.464V36.3037H178.464ZM178.464 29.9316C178.464 29.3251 178.375 28.3359 177.741 27.4277C176.97 26.3231 175.793 25.8818 174.731 25.8818V31.8818C174.496 31.8818 174.145 31.8388 173.759 31.6544C173.358 31.4628 173.04 31.1762 172.82 30.8608C172.431 30.3026 172.464 29.8383 172.464 29.9316H178.464ZM174.731 25.8818C173.607 25.8818 172.432 26.3827 171.696 27.4995C171.104 28.3974 171.023 29.3637 171.023 29.9561H177.023C177.023 29.8323 177.061 30.2615 176.705 30.8013C176.501 31.1118 176.191 31.4159 175.776 31.6261C175.372 31.8303 174.995 31.8818 174.731 31.8818V25.8818ZM171.023 29.9561V36.6455H177.023V29.9561H171.023ZM172.897 33.865C172.086 34.1934 171.226 34.6425 170.526 35.2983C169.784 35.9937 169.095 37.0577 169.095 38.4521H175.095C175.095 38.771 175.015 39.0626 174.899 39.2964C174.789 39.5161 174.67 39.6379 174.628 39.6773C174.587 39.7155 174.594 39.6993 174.689 39.6439C174.782 39.59 174.93 39.515 175.15 39.4261L172.897 33.865ZM174.097 47.0244C171.665 47.0244 169.545 46.5697 167.687 45.7131L165.175 51.1619C167.906 52.4212 170.897 53.0244 174.097 53.0244V47.0244ZM167.702 45.7204C165.957 44.9035 164.566 43.6597 163.495 41.9133L158.38 45.0496C160.044 47.7629 162.314 49.8231 165.159 51.1546L167.702 45.7204ZM163.503 41.9258C162.325 39.9845 161.643 37.4172 161.643 34.0576H155.643C155.643 38.2176 156.49 41.9328 158.372 45.0371L163.503 41.9258ZM161.643 34.0576C161.643 30.7112 162.336 28.1163 163.55 26.1183L158.422 23.0028C156.511 26.148 155.643 29.8845 155.643 34.0576H161.643ZM163.552 26.1147C164.653 24.2975 166.105 22.9907 167.95 22.1249L165.4 16.6935C162.459 18.0738 160.119 20.2012 158.42 23.0064L163.552 26.1147ZM167.942 22.1282C169.938 21.1979 172.091 20.7246 174.438 20.7246V14.7246C171.252 14.7246 168.229 15.3744 165.407 16.6902L167.942 22.1282ZM174.438 20.7246C178.866 20.7246 181.97 22.0025 184.147 24.2534L188.46 20.0825C184.908 16.409 180.102 14.7246 174.438 14.7246V20.7246ZM184.159 24.2655C186.405 26.5624 187.625 29.6223 187.625 33.7402H193.625C193.625 28.3204 191.964 23.6655 188.449 20.0705L184.159 24.2655ZM187.625 33.7402C187.625 36.219 187.102 38.2522 186.155 39.9345L191.384 42.878C192.911 40.1658 193.625 37.0883 193.625 33.7402H187.625ZM188.77 44.4062H192.31V38.4062H188.77V44.4062ZM189.464 42.3549C189.966 43.8621 190.188 45.2002 190.188 46.3867H196.188C196.188 44.4482 195.825 42.466 195.156 40.4576L189.464 42.3549ZM190.188 46.3867C190.188 48.1836 189.706 49.321 188.992 50.1048L193.43 54.1433C195.353 52.0299 196.188 49.3424 196.188 46.3867H190.188ZM188.992 50.1048C188.358 50.8021 187.397 51.2969 185.693 51.2969V57.2969C188.71 57.2969 191.428 56.3431 193.43 54.1433L188.992 50.1048ZM185.693 51.2969C184.069 51.2969 182.89 50.7907 181.931 49.8318L177.688 54.0744C179.854 56.2406 182.598 57.2969 185.693 57.2969V51.2969ZM181.931 49.8318C180.894 48.7945 179.817 46.894 178.906 43.7656L173.145 45.4434C174.187 49.0207 175.633 52.0193 177.688 54.0744L181.931 49.8318ZM176.025 41.6045H175.903V47.6045H176.025V41.6045ZM175.903 41.6045C175.18 41.6045 174.087 41.7872 173.196 42.6785C172.305 43.5697 172.122 44.6629 172.122 45.3857H178.122C178.122 45.5878 178.07 46.2903 177.439 46.9211C176.808 47.552 176.105 47.6045 175.903 47.6045V41.6045ZM172.122 45.3857C172.122 46.3754 172.386 47.3709 172.712 48.2677C173.051 49.199 173.531 50.217 174.118 51.304L179.397 48.4518C178.894 47.5206 178.556 46.7808 178.35 46.2148C178.131 45.6142 178.122 45.3727 178.122 45.3857H172.122ZM176.414 46.8977C175.691 46.9811 174.92 47.0244 174.097 47.0244V53.0244C175.129 53.0244 176.132 52.9701 177.102 52.8582L176.414 46.8977ZM217.456 47.3145L219.443 49.5623L219.451 49.5551L217.456 47.3145ZM196.606 47.3633L198.599 45.1202L198.588 45.1106L198.577 45.101L196.606 47.3633ZM192.822 20.3369L190.953 17.9904L189.822 18.8912V20.3369H192.822ZM204.517 19.7266L202.5 21.9477L202.508 21.955L202.516 21.9623L204.517 19.7266ZM206.372 39.0137H203.372V40.5413L204.608 41.4399L206.372 39.0137ZM207.495 39.0381L205.237 37.0626L205.227 37.0741L205.217 37.0857L207.495 39.0381ZM206.934 20.5078L205.013 18.2031L203.208 19.7073L204.236 21.8202L206.934 20.5078ZM214.014 21.0664C215.391 21.0664 216.444 21.4269 217.309 22.0664L220.874 17.2402C218.875 15.7639 216.543 15.0664 214.014 15.0664V21.0664ZM217.309 22.0664C217.894 22.4982 218.24 23.062 218.24 24.1699H224.24C224.24 21.3716 223.154 18.9244 220.874 17.2402L217.309 22.0664ZM218.24 24.1699V37.7441H224.24V24.1699H218.24ZM218.24 37.7441C218.24 41.2299 217.204 43.5219 215.461 45.0738L219.451 49.5551C222.753 46.6148 224.24 42.5266 224.24 37.7441H218.24ZM215.469 45.0666C213.652 46.6727 210.952 47.6592 206.982 47.6592V53.6592C211.932 53.6592 216.214 52.4158 219.443 49.5623L215.469 45.0666ZM206.982 47.6592C203.018 47.6592 200.359 46.6836 198.599 45.1202L194.614 49.6063C197.802 52.4374 202.06 53.6592 206.982 53.6592V47.6592ZM198.577 45.101C196.872 43.6158 195.822 41.3352 195.822 37.7441H189.822C189.822 42.5841 191.296 46.7162 194.636 49.6255L198.577 45.101ZM195.822 37.7441V20.3369H189.822V37.7441H195.822ZM194.691 22.6834C196.065 21.589 197.623 21.042 199.487 21.042V15.042C196.306 15.042 193.42 16.025 190.953 17.9904L194.691 22.6834ZM199.487 21.042C201.063 21.042 201.951 21.4489 202.5 21.9477L206.533 17.5054C204.609 15.7581 202.143 15.042 199.487 15.042V21.042ZM202.516 21.9623C202.911 22.3151 203.372 23.0481 203.372 24.7803H209.372C209.372 21.9877 208.597 19.3516 206.517 17.4908L202.516 21.9623ZM203.372 24.7803V39.0137H209.372V24.7803H203.372ZM204.608 41.4399C205.315 41.9545 206.14 42.209 206.982 42.209V36.209C207.369 36.209 207.787 36.3332 208.137 36.5875L204.608 41.4399ZM206.982 42.209C207.565 42.209 208.83 42.0907 209.773 40.9905L205.217 37.0857C205.965 36.2133 206.888 36.209 206.982 36.209V42.209ZM209.753 41.0136C210.633 40.0076 210.666 38.7908 210.666 38.3301H204.666C204.666 38.3519 204.662 38.2442 204.707 38.0595C204.749 37.8855 204.873 37.479 205.237 37.0626L209.753 41.0136ZM210.666 38.3301V24.7559H204.666V38.3301H210.666ZM210.666 24.7559C210.666 23.6621 210.616 22.666 210.481 21.8342L204.558 22.7947C204.619 23.1674 204.666 23.7988 204.666 24.7559H210.666ZM210.481 21.8342C210.332 20.9166 210.04 20.0352 209.631 19.1954L204.236 21.8202C204.413 22.1848 204.512 22.5079 204.558 22.7947L210.481 21.8342ZM208.854 22.8125C210.219 21.675 211.882 21.0664 214.014 21.0664V15.0664C210.611 15.0664 207.554 16.0854 205.013 18.2031L208.854 22.8125ZM237.231 33.96L234.283 34.5146L234.455 35.4257L235.11 36.0813L237.231 33.96ZM238.55 33.9844L240.061 36.5757L241.857 35.528L241.507 33.4786L238.55 33.9844ZM237.695 29.5898L240.551 28.6718L240.528 28.5982L240.5 28.5259L237.695 29.5898ZM236.304 29.0283L235.122 26.2709L232.911 27.2186L233.355 29.5829L236.304 29.0283ZM232.397 41.2842L234.203 38.8881L231.745 37.0364L229.956 39.5405L232.397 41.2842ZM233.472 43.1152L232.43 45.9285L232.461 45.94L232.492 45.9508L233.472 43.1152ZM236.719 43.7012L239.707 43.4314L239.476 40.8717L236.911 40.7073L236.719 43.7012ZM237.402 47.7051L240.071 49.0755L240.928 47.4063L239.802 45.9051L237.402 47.7051ZM234.839 49.5361L236.024 52.2919L236.038 52.2861L236.051 52.2802L234.839 49.5361ZM224.121 48.9502L222.563 51.5138L222.572 51.5194L222.581 51.5249L224.121 48.9502ZM221.753 43.9453L224.663 44.6729L224.672 44.6367L224.681 44.6003L221.753 43.9453ZM226.953 20.7031L225.34 18.1734L224.296 18.8393L224.026 20.0481L226.953 20.7031ZM244.434 19.458L243.146 22.1674L243.147 22.168L244.434 19.458ZM248.56 24.1211L245.642 24.8212L245.644 24.8261L248.56 24.1211ZM254.126 47.1436L256.503 48.9744L257.38 47.8357L257.042 46.4385L254.126 47.1436ZM238.892 46.582L241.849 46.0762L241.846 46.0629L241.844 46.0496L238.892 46.582ZM238.354 43.6035L238.304 40.6039L234.776 40.6627L235.402 44.1359L238.354 43.6035ZM242.236 41.2842L244.065 38.9063L242.307 37.5537L240.499 38.8386L242.236 41.2842ZM235.11 36.0813C236.031 37.0025 237.164 37.1553 237.842 37.1553V31.1553C237.966 31.1553 238.692 31.1779 239.353 31.8386L235.11 36.0813ZM237.842 37.1553C238.531 37.1553 239.315 37.0112 240.061 36.5757L237.038 31.393C237.394 31.1854 237.706 31.1553 237.842 31.1553V37.1553ZM241.507 33.4786C241.103 31.1199 240.78 29.3838 240.551 28.6718L234.839 30.5079C234.832 30.4869 234.854 30.5547 234.904 30.7782C234.949 30.9797 235.006 31.2522 235.074 31.6029C235.21 32.3032 235.383 33.2627 235.593 34.4902L241.507 33.4786ZM240.5 28.5259C240.304 28.0095 239.962 27.3522 239.34 26.8053C238.657 26.2054 237.796 25.8818 236.89 25.8818V31.8818C236.341 31.8818 235.793 31.6763 235.379 31.3123C235.026 31.0015 234.907 30.6982 234.89 30.6538L240.5 28.5259ZM236.89 25.8818C236.165 25.8818 235.547 26.0887 235.122 26.2709L237.485 31.7858C237.485 31.7861 237.437 31.8068 237.349 31.8289C237.262 31.8505 237.103 31.8818 236.89 31.8818V25.8818ZM233.355 29.5829L234.283 34.5146L240.18 33.4053L239.252 28.4737L233.355 29.5829ZM229.956 39.5405C229.582 40.0649 229.153 40.8802 229.153 41.9189H235.153C235.153 42.5671 234.888 42.9592 234.839 43.0279L229.956 39.5405ZM229.153 41.9189C229.153 43.2091 229.793 44.1823 230.467 44.7937C231.087 45.3562 231.815 45.7009 232.43 45.9285L234.514 40.302C234.249 40.204 234.318 40.1866 234.499 40.3503C234.604 40.4457 234.772 40.6257 234.914 40.9076C235.063 41.2035 235.153 41.5516 235.153 41.9189H229.153ZM232.492 45.9508C233.712 46.3721 235.074 46.6019 236.527 46.695L236.911 40.7073C235.824 40.6377 235.022 40.4769 234.451 40.2797L232.492 45.9508ZM233.731 43.9709C233.839 45.1733 233.958 46.1832 234.091 46.9649C234.157 47.3524 234.236 47.7398 234.337 48.0922C234.409 48.3467 234.588 48.9523 235.002 49.5051L239.802 45.9051C239.979 46.1411 240.061 46.3354 240.082 46.3846C240.11 46.452 240.117 46.4815 240.108 46.4513C240.09 46.3886 240.053 46.2348 240.006 45.9551C239.911 45.4021 239.81 44.5728 239.707 43.4314L233.731 43.9709ZM234.734 46.3347C234.817 46.1728 234.894 46.0909 234.904 46.081C234.914 46.0702 234.884 46.1033 234.786 46.1733C234.581 46.3193 234.216 46.5316 233.626 46.7921L236.051 52.2802C236.862 51.9222 237.623 51.5201 238.273 51.0557C238.896 50.6112 239.61 49.9732 240.071 49.0755L234.734 46.3347ZM233.653 46.7804C232.681 47.1986 231.515 47.4395 230.103 47.4395V53.4395C232.206 53.4395 234.197 53.0781 236.024 52.2919L233.653 46.7804ZM230.103 47.4395C228.207 47.4395 226.769 47.0383 225.661 46.3755L222.581 51.5249C224.793 52.8478 227.343 53.4395 230.103 53.4395V47.4395ZM225.679 46.3866C224.675 45.7762 224.631 45.3469 224.631 45.0684H218.631C218.631 47.9474 220.247 50.106 222.563 51.5138L225.679 46.3866ZM224.631 45.0684C224.631 44.8299 224.655 44.7081 224.663 44.6729L218.843 43.2177C218.689 43.8336 218.631 44.4605 218.631 45.0684H224.631ZM224.681 44.6003L229.881 21.3581L224.026 20.0481L218.825 43.2903L224.681 44.6003ZM228.566 23.2328C229.556 22.6017 230.809 22.0615 232.375 21.6526L230.858 15.8474C228.81 16.3825 226.955 17.1444 225.34 18.1734L228.566 23.2328ZM232.375 21.6526C233.922 21.2482 235.547 21.042 237.256 21.042V15.042C235.059 15.042 232.923 15.3078 230.858 15.8474L232.375 21.6526ZM237.256 21.042C239.728 21.042 241.657 21.4596 243.146 22.1674L245.722 16.7486C243.239 15.5684 240.383 15.042 237.256 15.042V21.042ZM243.147 22.168C244.769 22.9383 245.408 23.8451 245.642 24.8212L251.477 23.421C250.734 20.3281 248.623 18.1262 245.72 16.748L243.147 22.168ZM245.644 24.8261L251.21 47.8486L257.042 46.4385L251.476 23.4161L245.644 24.8261ZM251.749 45.3127C250.82 46.5188 249.12 47.4395 245.85 47.4395V53.4395C250.229 53.4395 254.046 52.1629 256.503 48.9744L251.749 45.3127ZM245.85 47.4395C244.344 47.4395 243.275 47.168 242.52 46.7757L239.756 52.1012C241.572 53.0436 243.644 53.4395 245.85 53.4395V47.4395ZM242.52 46.7757C241.921 46.4653 241.876 46.2362 241.849 46.0762L235.935 47.0878C236.33 49.4019 237.782 51.0771 239.756 52.1012L242.52 46.7757ZM241.844 46.0496L241.307 43.0711L235.402 44.1359L235.939 47.1144L241.844 46.0496ZM238.404 46.6031C239.741 46.5808 241.039 46.3231 242.283 45.8342L240.09 40.2497C239.511 40.477 238.922 40.5936 238.304 40.6039L238.404 46.6031ZM242.283 45.8342C242.865 45.6056 243.538 45.2855 244.116 44.8109C244.678 44.3494 245.554 43.392 245.554 41.9189H239.554C239.554 40.8365 240.202 40.2616 240.308 40.1745C240.43 40.0742 240.419 40.1203 240.09 40.2497L242.283 45.8342ZM245.554 41.9189C245.554 40.7001 244.994 39.6203 244.065 38.9063L240.407 43.6621C240.2 43.5027 239.966 43.2556 239.791 42.9066C239.615 42.5552 239.554 42.2068 239.554 41.9189H245.554ZM240.499 38.8386C240.239 39.0231 239.838 39.2219 239.226 39.3779L240.706 45.1924C241.884 44.8927 242.997 44.4242 243.974 43.7297L240.499 38.8386ZM239.226 39.3779C238.524 39.5564 237.946 39.627 237.476 39.627V45.627C238.535 45.627 239.617 45.4696 240.706 45.1924L239.226 39.3779ZM237.476 39.627C235.632 39.627 234.675 39.2439 234.203 38.8881L230.592 43.6802C232.496 45.1149 234.924 45.627 237.476 45.627V39.627ZM268.53 32.6416H265.53V34.1416L266.73 35.0416L268.53 32.6416ZM269.824 29.0283L267.141 30.37L267.192 30.473L267.252 30.5718L269.824 29.0283ZM268.506 28.7354L267.017 26.1306L265.14 27.2034L265.564 29.3237L268.506 28.7354ZM281.128 38.208L283.273 36.1111L281.443 34.2386L279.34 35.7987L281.128 38.208ZM285.352 42.5293L288.332 42.8732L288.496 41.454L287.497 40.4324L285.352 42.5293ZM282.935 48.3887L280.775 46.3063L280.769 46.313L280.762 46.3197L282.935 48.3887ZM272.974 49.1943L274.601 46.6739L274.59 46.667L274.579 46.6603L272.974 49.1943ZM269.287 44.2139L272.112 43.2049L272.108 43.1921L272.103 43.1794L269.287 44.2139ZM268.408 41.8213L271.224 40.7868L270.52 38.8707L268.48 38.8221L268.408 41.8213ZM265.82 41.5527L266.283 38.5887L264.777 38.3533L263.699 39.4314L265.82 41.5527ZM267.603 42.8711L270.392 41.7669L269.69 39.9943L267.787 39.8768L267.603 42.8711ZM268.994 46.3867H271.994V45.8146L271.784 45.2826L268.994 46.3867ZM268.994 48.4619L270.722 50.9146L271.994 50.0183V48.4619H268.994ZM256.86 20.1172L258.215 22.7938L258.228 22.7872L258.241 22.7805L256.86 20.1172ZM262.036 18.4814L262.599 21.4283L262.609 21.4262L262.62 21.424L262.036 18.4814ZM279.883 20.8496L278.117 23.2752L278.122 23.2788L279.883 20.8496ZM282.373 35.3271L280.021 33.465L280.018 33.4682L282.373 35.3271ZM277.734 38.5498L276.816 35.694L274.734 36.3636V38.5498H277.734ZM266.73 35.0416C267.159 35.3632 267.573 35.4989 267.766 35.5547C267.992 35.6205 268.193 35.6532 268.331 35.6713C268.609 35.7075 268.878 35.7148 269.092 35.7148V29.7148C268.996 29.7148 269.018 29.71 269.107 29.7217C269.153 29.7276 269.275 29.7451 269.438 29.7926C269.523 29.8172 269.644 29.8569 269.784 29.9197C269.921 29.981 270.117 30.0817 270.33 30.2416L266.73 35.0416ZM269.092 35.7148C270.34 35.7148 271.542 35.1438 272.296 34.0127L267.304 30.6845C267.474 30.4289 267.743 30.1548 268.122 29.9586C268.495 29.7658 268.846 29.7148 269.092 29.7148V35.7148ZM272.296 34.0127C272.969 33.0032 273.044 31.852 273.044 31.1523H267.044C267.044 31.2942 267.032 31.3206 267.043 31.2666C267.052 31.2229 267.104 30.9841 267.304 30.6845L272.296 34.0127ZM273.044 31.1523V30.2734H267.044V31.1523H273.044ZM273.044 30.2734C273.044 29.608 272.991 28.4761 272.397 27.4848L267.252 30.5718C267.154 30.4094 267.102 30.2738 267.074 30.1922C267.047 30.1093 267.037 30.0558 267.035 30.0441C267.032 30.0275 267.044 30.0932 267.044 30.2734H273.044ZM272.508 27.6867C272.208 27.0869 271.728 26.5213 271.044 26.1306C270.38 25.7512 269.701 25.6377 269.141 25.6377V31.6377C268.905 31.6377 268.503 31.5893 268.067 31.3401C267.611 31.0796 267.311 30.7093 267.141 30.37L272.508 27.6867ZM269.141 25.6377C268.894 25.6377 268.601 25.6498 268.294 25.697C268.025 25.7384 267.532 25.8368 267.017 26.1306L269.994 31.3401C269.777 31.4644 269.589 31.5309 269.472 31.5661C269.35 31.6025 269.257 31.6194 269.206 31.6272C269.111 31.6419 269.078 31.6377 269.141 31.6377V25.6377ZM265.564 29.3237C265.547 29.2365 265.538 29.1708 265.535 29.1384C265.531 29.1033 265.53 29.0812 265.529 29.0763C265.529 29.0686 265.53 29.0898 265.53 29.1504H271.53C271.53 28.9504 271.528 28.5477 271.448 28.147L265.564 29.3237ZM265.53 29.1504V32.6416H271.53V29.1504H265.53ZM278.983 40.3049L283.206 44.6262L287.497 40.4324L283.273 36.1111L278.983 40.3049ZM282.371 42.1854C282.128 44.2949 281.501 45.5531 280.775 46.3063L285.094 50.4711C287.005 48.4899 287.989 45.8418 288.332 42.8732L282.371 42.1854ZM280.762 46.3197C280.149 46.9632 279.202 47.4395 277.515 47.4395V53.4395C280.45 53.4395 283.116 52.5485 285.107 50.4576L280.762 46.3197ZM277.515 47.4395C276.268 47.4395 275.337 47.1493 274.601 46.6739L271.347 51.7148C273.182 52.8995 275.278 53.4395 277.515 53.4395V47.4395ZM274.579 46.6603C273.627 46.0566 272.757 45.01 272.112 43.2049L266.462 45.2229C267.445 47.975 269.033 50.2487 271.368 51.7284L274.579 46.6603ZM272.103 43.1794L271.224 40.7868L265.592 42.8557L266.471 45.2483L272.103 43.1794ZM268.48 38.8221C267.977 38.8102 267.257 38.7408 266.283 38.5887L265.357 44.5168C266.467 44.6902 267.472 44.7998 268.337 44.8204L268.48 38.8221ZM263.699 39.4314C262.879 40.2515 262.625 41.2665 262.625 42.0898H268.625C268.625 42.4574 268.501 43.1143 267.942 43.6741L263.699 39.4314ZM262.625 42.0898C262.625 44.2142 264.334 45.1349 265.017 45.4049C265.793 45.7113 266.666 45.819 267.418 45.8654L267.787 39.8768C267.221 39.8418 267.105 39.7786 267.222 39.8246C267.288 39.8509 267.604 39.9802 267.932 40.329C268.321 40.7411 268.625 41.3603 268.625 42.0898H262.625ZM264.813 43.9752L266.205 47.4909L271.784 45.2826L270.392 41.7669L264.813 43.9752ZM265.994 46.3867V48.4619H271.994V46.3867H265.994ZM267.267 46.0092C266.026 46.8834 264.276 47.4395 261.792 47.4395V53.4395C265.167 53.4395 268.219 52.6772 270.722 50.9146L267.267 46.0092ZM261.792 47.4395C260.076 47.4395 259.059 47.0842 258.464 46.6743L255.062 51.6167C256.973 52.9321 259.309 53.4395 261.792 53.4395V47.4395ZM258.464 46.6743C258.098 46.4226 257.883 46.136 257.883 45.3857H251.883C251.883 47.9233 252.921 50.1432 255.062 51.6167L258.464 46.6743ZM257.883 45.3857V22.1924H251.883V45.3857H257.883ZM257.883 22.1924C257.883 22.4896 257.811 22.7443 257.723 22.9319C257.641 23.1079 257.558 23.1961 257.549 23.2061C257.54 23.2158 257.577 23.1754 257.694 23.0947C257.81 23.0154 257.979 22.9135 258.215 22.7938L255.506 17.4405C254.689 17.8536 253.863 18.3768 253.205 19.0669C252.526 19.7794 251.883 20.8348 251.883 22.1924H257.883ZM258.241 22.7805C259.213 22.2766 260.633 21.8034 262.599 21.4283L261.474 15.5346C259.175 15.9733 257.144 16.5906 255.479 17.4539L258.241 22.7805ZM262.62 21.424C264.564 21.0383 266.5 20.8467 268.433 20.8467V14.8467C266.101 14.8467 263.773 15.0782 261.452 15.5388L262.62 21.424ZM268.433 20.8467C272.947 20.8467 276.06 21.7774 278.117 23.2752L281.648 18.424C278.205 15.9179 273.684 14.8467 268.433 14.8467V20.8467ZM278.122 23.2788C280.184 24.7728 281.229 26.7922 281.229 29.7119H287.229C287.229 25.0144 285.376 21.1257 281.643 18.4205L278.122 23.2788ZM281.229 29.7119C281.229 31.2848 280.798 32.4834 280.021 33.465L284.725 37.1893C286.422 35.0459 287.229 32.501 287.229 29.7119H281.229ZM280.018 33.4682C279.166 34.5479 278.119 35.2745 276.816 35.694L278.653 41.4056C281.093 40.6206 283.139 39.1988 284.728 37.1861L280.018 33.4682ZM274.734 38.5498C274.734 39.4208 275.017 40.5744 276.034 41.4305C276.952 42.2033 278.004 42.3311 278.662 42.3311V36.3311C278.702 36.3311 279.29 36.3286 279.899 36.841C280.606 37.4366 280.734 38.1997 280.734 38.5498H274.734ZM278.662 42.3311C280.321 42.3311 281.815 41.4341 282.915 40.6173L279.34 35.7987C278.945 36.0922 278.672 36.247 278.511 36.3201C278.337 36.3993 278.409 36.3311 278.662 36.3311V42.3311ZM311.353 18.5059L313.92 16.9545L313.045 15.5059H311.353V18.5059ZM312.402 21.0693L309.489 21.7849L309.492 21.7969L312.402 21.0693ZM311.768 27.2461L309.407 25.3947L309.396 25.4091L309.385 25.4237L311.768 27.2461ZM298.389 29.5898L296.267 31.7112L297.146 32.5898H298.389V29.5898ZM310.059 29.5898L312.653 28.0834L311.786 26.5898H310.059V29.5898ZM310.815 31.4941L313.736 30.807L313.722 30.7504L313.707 30.6944L310.815 31.4941ZM310.034 38.2568V41.2568H311.653L312.542 39.9036L310.034 38.2568ZM299.707 38.5498L300.306 41.4894L300.332 41.4841L300.358 41.4784L299.707 38.5498ZM298.071 39.0137L296.499 36.4587L296.43 36.5011L296.364 36.5471L298.071 39.0137ZM298.096 40.1123L296.607 42.717L297.763 43.3774L299.028 42.9638L298.096 40.1123ZM300.757 39.5264L300.478 36.5393L300.435 36.5434L300.391 36.5487L300.757 39.5264ZM311.597 39.3555L314.044 37.6198L313.147 36.3555H311.597V39.3555ZM311.426 50.0244V53.0244H312.767L313.662 52.0248L311.426 50.0244ZM288.281 48.5596L290.155 46.217L290.141 46.2057L290.127 46.1946L288.281 48.5596ZM297.266 21.5059H311.353V15.5059H297.266V21.5059ZM308.785 20.0572C309.093 20.567 309.33 21.1378 309.489 21.7849L315.316 20.3538C315.019 19.1454 314.556 18.0072 313.92 16.9545L308.785 20.0572ZM309.492 21.7969C309.676 22.5337 309.744 23.1057 309.744 23.5352H315.744C315.744 22.4998 315.584 21.4278 315.313 20.3417L309.492 21.7969ZM309.744 23.5352C309.744 24.8604 309.469 25.3158 309.407 25.3947L314.128 29.0975C315.368 27.5162 315.744 25.4976 315.744 23.5352H309.744ZM309.385 25.4237C309.372 25.4402 309.363 25.4505 309.357 25.4563C309.354 25.4592 309.352 25.4612 309.351 25.4624C309.35 25.463 309.35 25.4634 309.349 25.4636C309.349 25.4639 309.349 25.464 309.349 25.464C309.349 25.464 309.349 25.4639 309.349 25.4637C309.35 25.4635 309.35 25.4633 309.35 25.463C309.351 25.4623 309.352 25.4616 309.354 25.4608C309.355 25.4601 309.356 25.4594 309.357 25.4589C309.358 25.4584 309.358 25.4582 309.358 25.4582C309.358 25.4583 309.357 25.4586 309.356 25.4593C309.354 25.46 309.351 25.461 309.347 25.4623C309.339 25.4649 309.325 25.4688 309.305 25.473C309.263 25.4814 309.192 25.4912 309.082 25.4912V31.4912C311.058 31.4912 312.883 30.7266 314.151 29.0684L309.385 25.4237ZM309.082 25.4912H299.243V31.4912H309.082V25.4912ZM299.243 25.4912C298.632 25.4912 297.621 25.5971 296.715 26.307C295.67 27.126 295.34 28.2795 295.34 29.1992H301.34C301.34 29.6469 301.16 30.4464 300.416 31.0294C299.812 31.5034 299.252 31.4912 299.243 31.4912V25.4912ZM295.34 29.1992V29.3945H301.34V29.1992H295.34ZM295.34 29.3945C295.34 29.5882 295.354 29.8927 295.442 30.2442C295.525 30.5775 295.729 31.1733 296.267 31.7112L300.51 27.4685C301.015 27.9739 301.195 28.5208 301.262 28.789C301.334 29.0754 301.34 29.2986 301.34 29.3945H295.34ZM298.389 32.5898H310.059V26.5898H298.389V32.5898ZM307.464 31.0963C307.592 31.3156 307.758 31.6939 307.924 32.2939L313.707 30.6944C313.45 29.7644 313.112 28.8732 312.653 28.0834L307.464 31.0963ZM307.895 32.1813C308.053 32.8512 308.108 33.3546 308.108 33.7158H314.108C314.108 32.775 313.969 31.7972 313.736 30.807L307.895 32.1813ZM308.108 33.7158C308.108 35.3342 307.801 36.1921 307.527 36.61L312.542 39.9036C313.7 38.1406 314.108 35.9711 314.108 33.7158H308.108ZM310.034 35.2568H304.736V41.2568H310.034V35.2568ZM304.736 35.2568C302.297 35.2568 300.303 35.3442 299.056 35.6212L300.358 41.4784C300.869 41.3648 302.228 41.2568 304.736 41.2568V35.2568ZM299.108 35.6102C298.632 35.7072 298.195 35.8077 297.82 35.9139C297.533 35.9953 296.989 36.157 296.499 36.4587L299.644 41.5686C299.544 41.6302 299.465 41.6684 299.425 41.687C299.382 41.7069 299.354 41.7172 299.349 41.7192C299.342 41.7221 299.372 41.7104 299.457 41.6862C299.628 41.6377 299.903 41.5715 300.306 41.4894L299.108 35.6102ZM296.364 36.5471C295.464 37.1697 294.754 38.2236 294.754 39.5752H300.754C300.754 39.9465 300.662 40.3562 300.445 40.7401C300.235 41.1107 299.973 41.346 299.779 41.4802L296.364 36.5471ZM294.754 39.5752C294.754 41.0621 295.615 42.1498 296.607 42.717L299.584 37.5076C299.795 37.6279 300.111 37.862 300.37 38.2697C300.642 38.6973 300.754 39.1625 300.754 39.5752H294.754ZM299.028 42.9638C299.681 42.7503 300.378 42.5955 301.123 42.504L300.391 36.5487C299.28 36.6851 298.203 36.921 297.163 37.2608L299.028 42.9638ZM301.036 42.5134C302.15 42.4094 303.382 42.3555 304.736 42.3555V36.3555C303.226 36.3555 301.805 36.4155 300.478 36.5393L301.036 42.5134ZM304.736 42.3555H311.597V36.3555H304.736V42.3555ZM309.15 41.0911C309.731 41.9112 310.086 42.9666 310.086 44.4092H316.086C316.086 41.913 315.448 39.5992 314.044 37.6198L309.15 41.0911ZM310.086 44.4092C310.086 45.2634 309.98 46.0536 309.778 46.7897L315.564 48.3763C315.916 47.0942 316.086 45.7685 316.086 44.4092H310.086ZM309.778 46.7897C309.593 47.4648 309.364 47.8299 309.19 48.024L313.662 52.0248C314.595 50.9819 315.196 49.7195 315.564 48.3763L309.778 46.7897ZM311.426 47.0244H293.14V53.0244H311.426V47.0244ZM293.14 47.0244C291.602 47.0244 290.706 46.6576 290.155 46.217L286.407 50.9022C288.298 52.4147 290.641 53.0244 293.14 53.0244V47.0244ZM290.127 46.1946C289.664 45.8333 289.279 45.2625 289.279 43.9697H283.279C283.279 46.7134 284.229 49.2025 286.435 50.9245L290.127 46.1946ZM289.279 43.9697V20.752H283.279V43.9697H289.279ZM289.279 20.752C289.279 21.1688 289.149 21.5597 288.948 21.8628C288.768 22.1349 288.587 22.2532 288.561 22.2698C288.534 22.2873 288.586 22.2502 288.769 22.1868C288.947 22.1253 289.203 22.0548 289.553 21.9847L288.376 16.1012C287.341 16.3082 286.247 16.6304 285.34 17.2078C284.371 17.8243 283.279 18.9852 283.279 20.752H289.279ZM289.553 21.9847C291.039 21.6876 293.559 21.5059 297.266 21.5059V15.5059C293.485 15.5059 290.472 15.6822 288.376 16.1012L289.553 21.9847Z" fill="black" mask="url(#path-1-outside-1_1352_856)"/>
</svg>
