<svg width="421" height="64" viewBox="0 0 421 64" fill="none" xmlns="http://www.w3.org/2000/svg">
<rect x="2.5" y="7.5" width="49" height="49" stroke="#7B00DB" stroke-width="5"/>
<mask id="path-2-outside-1_1490_852" maskUnits="userSpaceOnUse" x="30" y="13" width="389" height="44" fill="black">
<rect fill="white" x="30" y="13" width="389" height="44"/>
<path d="M63.0342 50H40.1338C39.5479 50 38.9131 49.9349 38.2295 49.8047C37.5622 49.6582 36.8949 49.4385 36.2275 49.1455C35.5765 48.8525 34.9499 48.4782 34.3477 48.0225C33.7454 47.5505 33.2083 46.9889 32.7363 46.3379C32.2806 45.6706 31.9144 44.9056 31.6377 44.043C31.361 43.1641 31.2227 42.1794 31.2227 41.0889V23.9014C31.2227 23.3154 31.2878 22.6888 31.418 22.0215C31.5645 21.3379 31.7842 20.6706 32.0771 20.0195C32.3701 19.3522 32.7526 18.7174 33.2246 18.1152C33.6966 17.513 34.2581 16.984 34.9092 16.5283C35.5765 16.0563 36.3415 15.682 37.2041 15.4053C38.0667 15.1286 39.0433 14.9902 40.1338 14.9902H63.0342V21.3379H40.1338C39.3037 21.3379 38.6689 21.5576 38.2295 21.9971C37.79 22.4365 37.5703 23.0876 37.5703 23.9502V41.0889C37.5703 41.9027 37.79 42.5374 38.2295 42.9932C38.6852 43.4326 39.32 43.6523 40.1338 43.6523H63.0342V50ZM75.4365 50H69.0889V14.9902H75.4365V50ZM117.844 47.29C117.844 47.7458 117.754 48.1689 117.575 48.5596C117.412 48.9502 117.185 49.292 116.892 49.585C116.615 49.8617 116.281 50.0814 115.891 50.2441C115.5 50.4069 115.085 50.4883 114.646 50.4883C114.255 50.4883 113.856 50.415 113.449 50.2686C113.059 50.1221 112.709 49.8861 112.399 49.5605L89.2061 25.3418V50H82.8584V17.7002C82.8584 17.0492 83.0374 16.4632 83.3955 15.9424C83.7699 15.4053 84.2419 15.0065 84.8115 14.7461C85.4137 14.502 86.0322 14.445 86.667 14.5752C87.3018 14.6891 87.847 14.9821 88.3027 15.4541L111.496 39.6484V14.9902H117.844V47.29ZM154.025 35.6934H133.981V29.2969H154.025V35.6934ZM156.882 50H133.981C133.103 50 132.142 49.8454 131.101 49.5361C130.059 49.2269 129.09 48.7223 128.195 48.0225C127.316 47.3063 126.576 46.3867 125.974 45.2637C125.388 44.1243 125.095 42.7327 125.095 41.0889V18.1885C125.095 17.749 125.176 17.334 125.339 16.9434C125.502 16.5527 125.721 16.2109 125.998 15.918C126.291 15.625 126.633 15.3971 127.023 15.2344C127.414 15.0716 127.837 14.9902 128.293 14.9902H156.882V21.3379H131.442V41.0889C131.442 41.9189 131.662 42.5537 132.102 42.9932C132.541 43.4326 133.184 43.6523 134.03 43.6523H156.882V50ZM212.937 39.6973C212.937 40.9505 212.774 42.0817 212.448 43.0908C212.139 44.0837 211.724 44.9626 211.203 45.7275C210.682 46.4925 210.072 47.1436 209.372 47.6807C208.672 48.2178 207.948 48.6572 207.199 48.999C206.451 49.3408 205.686 49.5931 204.904 49.7559C204.139 49.9186 203.415 50 202.731 50H178.244V43.6523H202.731C203.952 43.6523 204.896 43.2943 205.563 42.5781C206.247 41.862 206.589 40.9017 206.589 39.6973C206.589 39.1113 206.499 38.5742 206.32 38.0859C206.141 37.5977 205.881 37.1745 205.539 36.8164C205.214 36.4583 204.807 36.1816 204.318 35.9863C203.846 35.791 203.317 35.6934 202.731 35.6934H188.132C187.106 35.6934 186 35.5143 184.812 35.1562C183.623 34.7819 182.517 34.1878 181.491 33.374C180.482 32.5602 179.636 31.4941 178.952 30.1758C178.285 28.8574 177.951 27.2461 177.951 25.3418C177.951 23.4375 178.285 21.8343 178.952 20.5322C179.636 19.2139 180.482 18.1478 181.491 17.334C182.517 16.5039 183.623 15.9098 184.812 15.5518C186 15.1774 187.106 14.9902 188.132 14.9902H209.738V21.3379H188.132C186.927 21.3379 185.983 21.7041 185.3 22.4365C184.632 23.1689 184.299 24.1374 184.299 25.3418C184.299 26.5625 184.632 27.5309 185.3 28.2471C185.983 28.9469 186.927 29.2969 188.132 29.2969H202.731H202.78C203.464 29.3132 204.188 29.4108 204.953 29.5898C205.718 29.7526 206.475 30.013 207.224 30.3711C207.989 30.7292 208.713 31.1849 209.396 31.7383C210.08 32.2754 210.682 32.9264 211.203 33.6914C211.74 34.4564 212.163 35.3353 212.473 36.3281C212.782 37.321 212.937 38.444 212.937 39.6973ZM254.953 35.8398C254.953 37.4674 254.733 39.0055 254.294 40.4541C253.871 41.8864 253.26 43.1885 252.463 44.3604C251.682 45.5322 250.729 46.5576 249.606 47.4365C248.5 48.3154 247.263 49.0072 245.896 49.5117L253.317 55.3955H244.113L238.01 50.4883H231.76C229.66 50.4883 227.715 50.1302 225.925 49.4141C224.134 48.6816 222.588 47.6644 221.286 46.3623C219.984 45.0602 218.959 43.514 218.21 41.7236C217.478 39.9333 217.111 37.972 217.111 35.8398V29.1504C217.111 27.0345 217.478 25.0814 218.21 23.291C218.959 21.4844 219.984 19.9382 221.286 18.6523C222.588 17.3503 224.134 16.333 225.925 15.6006C227.715 14.8682 229.66 14.502 231.76 14.502H240.354C242.453 14.502 244.39 14.8682 246.164 15.6006C247.954 16.333 249.501 17.3503 250.803 18.6523C252.105 19.9382 253.122 21.4844 253.854 23.291C254.587 25.0814 254.953 27.0345 254.953 29.1504V35.8398ZM248.605 29.1504C248.605 27.8971 248.402 26.766 247.995 25.7568C247.604 24.7314 247.043 23.8607 246.311 23.1445C245.594 22.4121 244.724 21.8506 243.698 21.46C242.689 21.0531 241.574 20.8496 240.354 20.8496H231.76C230.523 20.8496 229.392 21.0531 228.366 21.46C227.357 21.8506 226.486 22.4121 225.754 23.1445C225.021 23.8607 224.452 24.7314 224.045 25.7568C223.654 26.766 223.459 27.8971 223.459 29.1504V35.8398C223.459 37.0931 223.654 38.2324 224.045 39.2578C224.452 40.2669 225.021 41.1377 225.754 41.8701C226.486 42.5863 227.357 43.1478 228.366 43.5547C229.392 43.9453 230.523 44.1406 231.76 44.1406H240.305C241.542 44.1406 242.665 43.9453 243.674 43.5547C244.699 43.1478 245.578 42.5863 246.311 41.8701C247.043 41.1377 247.604 40.2669 247.995 39.2578C248.402 38.2324 248.605 37.0931 248.605 35.8398V29.1504ZM295.529 46.8018C295.529 47.2575 295.448 47.6807 295.285 48.0713C295.122 48.4619 294.895 48.8037 294.602 49.0967C294.309 49.3734 293.967 49.5931 293.576 49.7559C293.186 49.9186 292.771 50 292.331 50H278.024C276.674 50 275.306 49.8535 273.923 49.5605C272.539 49.2676 271.197 48.82 269.895 48.2178C268.609 47.5993 267.396 46.818 266.257 45.874C265.118 44.93 264.117 43.8151 263.254 42.5293C262.408 41.2272 261.74 39.7461 261.252 38.0859C260.764 36.4095 260.52 34.5459 260.52 32.4951V14.9902H266.867V32.4951C266.867 34.2855 267.111 35.7992 267.6 37.0361C268.104 38.2731 268.739 39.3066 269.504 40.1367C270.269 40.9668 271.107 41.6178 272.019 42.0898C272.93 42.5618 273.793 42.9118 274.606 43.1396C275.437 43.3675 276.161 43.514 276.779 43.5791C277.414 43.6279 277.829 43.6523 278.024 43.6523H289.182V14.9902H295.529V46.8018ZM337.277 50H330.93V41.4062H308.615V50H302.268V32.4951C302.268 29.9398 302.707 27.5879 303.586 25.4395C304.465 23.291 305.686 21.4437 307.248 19.8975C308.811 18.3512 310.658 17.1468 312.79 16.2842C314.922 15.4215 317.25 14.9902 319.772 14.9902H334.079C334.519 14.9902 334.934 15.0716 335.324 15.2344C335.715 15.3971 336.057 15.625 336.35 15.918C336.643 16.2109 336.87 16.5527 337.033 16.9434C337.196 17.334 337.277 17.749 337.277 18.1885V50ZM308.615 35.0586H330.93V21.3379H319.772C319.577 21.3379 319.162 21.3704 318.527 21.4355C317.909 21.4844 317.185 21.6227 316.354 21.8506C315.541 22.0785 314.678 22.4284 313.767 22.9004C312.855 23.3724 312.017 24.0234 311.252 24.8535C310.487 25.6836 309.852 26.7253 309.348 27.9785C308.859 29.2155 308.615 30.721 308.615 32.4951V35.0586ZM379.66 26.7578C379.66 28.2064 379.481 29.5003 379.123 30.6396C378.765 31.779 378.277 32.7881 377.658 33.667C377.056 34.5296 376.356 35.2702 375.559 35.8887C374.761 36.5072 373.923 37.0199 373.044 37.4268C372.181 37.8174 371.302 38.1022 370.407 38.2812C369.528 38.4603 368.698 38.5498 367.917 38.5498L381.174 50H371.359L358.127 38.5498H353.562V32.2021H367.917C368.715 32.137 369.439 31.9743 370.09 31.7139C370.757 31.4372 371.327 31.071 371.799 30.6152C372.287 30.1595 372.661 29.6143 372.922 28.9795C373.182 28.3285 373.312 27.5879 373.312 26.7578V22.7539C373.312 22.3958 373.264 22.1273 373.166 21.9482C373.085 21.7529 372.971 21.6146 372.824 21.5332C372.694 21.4355 372.548 21.3786 372.385 21.3623C372.238 21.346 372.1 21.3379 371.97 21.3379H351.022V50H344.675V18.1885C344.675 17.749 344.756 17.334 344.919 16.9434C345.082 16.5527 345.301 16.2109 345.578 15.918C345.871 15.625 346.213 15.3971 346.604 15.2344C346.994 15.0716 347.417 14.9902 347.873 14.9902H371.97C373.386 14.9902 374.582 15.2507 375.559 15.7715C376.535 16.276 377.325 16.9189 377.927 17.7002C378.545 18.4652 378.985 19.2952 379.245 20.1904C379.522 21.0856 379.66 21.9238 379.66 22.7051V26.7578ZM414.816 35.6934H394.772V29.2969H414.816V35.6934ZM417.673 50H394.772C393.894 50 392.933 49.8454 391.892 49.5361C390.85 49.2269 389.882 48.7223 388.986 48.0225C388.107 47.3063 387.367 46.3867 386.765 45.2637C386.179 44.1243 385.886 42.7327 385.886 41.0889V18.1885C385.886 17.749 385.967 17.334 386.13 16.9434C386.293 16.5527 386.512 16.2109 386.789 15.918C387.082 15.625 387.424 15.3971 387.814 15.2344C388.205 15.0716 388.628 14.9902 389.084 14.9902H417.673V21.3379H392.233V41.0889C392.233 41.9189 392.453 42.5537 392.893 42.9932C393.332 43.4326 393.975 43.6523 394.821 43.6523H417.673V50Z"/>
</mask>
<path d="M63.0342 50H40.1338C39.5479 50 38.9131 49.9349 38.2295 49.8047C37.5622 49.6582 36.8949 49.4385 36.2275 49.1455C35.5765 48.8525 34.9499 48.4782 34.3477 48.0225C33.7454 47.5505 33.2083 46.9889 32.7363 46.3379C32.2806 45.6706 31.9144 44.9056 31.6377 44.043C31.361 43.1641 31.2227 42.1794 31.2227 41.0889V23.9014C31.2227 23.3154 31.2878 22.6888 31.418 22.0215C31.5645 21.3379 31.7842 20.6706 32.0771 20.0195C32.3701 19.3522 32.7526 18.7174 33.2246 18.1152C33.6966 17.513 34.2581 16.984 34.9092 16.5283C35.5765 16.0563 36.3415 15.682 37.2041 15.4053C38.0667 15.1286 39.0433 14.9902 40.1338 14.9902H63.0342V21.3379H40.1338C39.3037 21.3379 38.6689 21.5576 38.2295 21.9971C37.79 22.4365 37.5703 23.0876 37.5703 23.9502V41.0889C37.5703 41.9027 37.79 42.5374 38.2295 42.9932C38.6852 43.4326 39.32 43.6523 40.1338 43.6523H63.0342V50ZM75.4365 50H69.0889V14.9902H75.4365V50ZM117.844 47.29C117.844 47.7458 117.754 48.1689 117.575 48.5596C117.412 48.9502 117.185 49.292 116.892 49.585C116.615 49.8617 116.281 50.0814 115.891 50.2441C115.5 50.4069 115.085 50.4883 114.646 50.4883C114.255 50.4883 113.856 50.415 113.449 50.2686C113.059 50.1221 112.709 49.8861 112.399 49.5605L89.2061 25.3418V50H82.8584V17.7002C82.8584 17.0492 83.0374 16.4632 83.3955 15.9424C83.7699 15.4053 84.2419 15.0065 84.8115 14.7461C85.4137 14.502 86.0322 14.445 86.667 14.5752C87.3018 14.6891 87.847 14.9821 88.3027 15.4541L111.496 39.6484V14.9902H117.844V47.29ZM154.025 35.6934H133.981V29.2969H154.025V35.6934ZM156.882 50H133.981C133.103 50 132.142 49.8454 131.101 49.5361C130.059 49.2269 129.09 48.7223 128.195 48.0225C127.316 47.3063 126.576 46.3867 125.974 45.2637C125.388 44.1243 125.095 42.7327 125.095 41.0889V18.1885C125.095 17.749 125.176 17.334 125.339 16.9434C125.502 16.5527 125.721 16.2109 125.998 15.918C126.291 15.625 126.633 15.3971 127.023 15.2344C127.414 15.0716 127.837 14.9902 128.293 14.9902H156.882V21.3379H131.442V41.0889C131.442 41.9189 131.662 42.5537 132.102 42.9932C132.541 43.4326 133.184 43.6523 134.03 43.6523H156.882V50ZM212.937 39.6973C212.937 40.9505 212.774 42.0817 212.448 43.0908C212.139 44.0837 211.724 44.9626 211.203 45.7275C210.682 46.4925 210.072 47.1436 209.372 47.6807C208.672 48.2178 207.948 48.6572 207.199 48.999C206.451 49.3408 205.686 49.5931 204.904 49.7559C204.139 49.9186 203.415 50 202.731 50H178.244V43.6523H202.731C203.952 43.6523 204.896 43.2943 205.563 42.5781C206.247 41.862 206.589 40.9017 206.589 39.6973C206.589 39.1113 206.499 38.5742 206.32 38.0859C206.141 37.5977 205.881 37.1745 205.539 36.8164C205.214 36.4583 204.807 36.1816 204.318 35.9863C203.846 35.791 203.317 35.6934 202.731 35.6934H188.132C187.106 35.6934 186 35.5143 184.812 35.1562C183.623 34.7819 182.517 34.1878 181.491 33.374C180.482 32.5602 179.636 31.4941 178.952 30.1758C178.285 28.8574 177.951 27.2461 177.951 25.3418C177.951 23.4375 178.285 21.8343 178.952 20.5322C179.636 19.2139 180.482 18.1478 181.491 17.334C182.517 16.5039 183.623 15.9098 184.812 15.5518C186 15.1774 187.106 14.9902 188.132 14.9902H209.738V21.3379H188.132C186.927 21.3379 185.983 21.7041 185.3 22.4365C184.632 23.1689 184.299 24.1374 184.299 25.3418C184.299 26.5625 184.632 27.5309 185.3 28.2471C185.983 28.9469 186.927 29.2969 188.132 29.2969H202.731H202.78C203.464 29.3132 204.188 29.4108 204.953 29.5898C205.718 29.7526 206.475 30.013 207.224 30.3711C207.989 30.7292 208.713 31.1849 209.396 31.7383C210.08 32.2754 210.682 32.9264 211.203 33.6914C211.74 34.4564 212.163 35.3353 212.473 36.3281C212.782 37.321 212.937 38.444 212.937 39.6973ZM254.953 35.8398C254.953 37.4674 254.733 39.0055 254.294 40.4541C253.871 41.8864 253.26 43.1885 252.463 44.3604C251.682 45.5322 250.729 46.5576 249.606 47.4365C248.5 48.3154 247.263 49.0072 245.896 49.5117L253.317 55.3955H244.113L238.01 50.4883H231.76C229.66 50.4883 227.715 50.1302 225.925 49.4141C224.134 48.6816 222.588 47.6644 221.286 46.3623C219.984 45.0602 218.959 43.514 218.21 41.7236C217.478 39.9333 217.111 37.972 217.111 35.8398V29.1504C217.111 27.0345 217.478 25.0814 218.21 23.291C218.959 21.4844 219.984 19.9382 221.286 18.6523C222.588 17.3503 224.134 16.333 225.925 15.6006C227.715 14.8682 229.66 14.502 231.76 14.502H240.354C242.453 14.502 244.39 14.8682 246.164 15.6006C247.954 16.333 249.501 17.3503 250.803 18.6523C252.105 19.9382 253.122 21.4844 253.854 23.291C254.587 25.0814 254.953 27.0345 254.953 29.1504V35.8398ZM248.605 29.1504C248.605 27.8971 248.402 26.766 247.995 25.7568C247.604 24.7314 247.043 23.8607 246.311 23.1445C245.594 22.4121 244.724 21.8506 243.698 21.46C242.689 21.0531 241.574 20.8496 240.354 20.8496H231.76C230.523 20.8496 229.392 21.0531 228.366 21.46C227.357 21.8506 226.486 22.4121 225.754 23.1445C225.021 23.8607 224.452 24.7314 224.045 25.7568C223.654 26.766 223.459 27.8971 223.459 29.1504V35.8398C223.459 37.0931 223.654 38.2324 224.045 39.2578C224.452 40.2669 225.021 41.1377 225.754 41.8701C226.486 42.5863 227.357 43.1478 228.366 43.5547C229.392 43.9453 230.523 44.1406 231.76 44.1406H240.305C241.542 44.1406 242.665 43.9453 243.674 43.5547C244.699 43.1478 245.578 42.5863 246.311 41.8701C247.043 41.1377 247.604 40.2669 247.995 39.2578C248.402 38.2324 248.605 37.0931 248.605 35.8398V29.1504ZM295.529 46.8018C295.529 47.2575 295.448 47.6807 295.285 48.0713C295.122 48.4619 294.895 48.8037 294.602 49.0967C294.309 49.3734 293.967 49.5931 293.576 49.7559C293.186 49.9186 292.771 50 292.331 50H278.024C276.674 50 275.306 49.8535 273.923 49.5605C272.539 49.2676 271.197 48.82 269.895 48.2178C268.609 47.5993 267.396 46.818 266.257 45.874C265.118 44.93 264.117 43.8151 263.254 42.5293C262.408 41.2272 261.74 39.7461 261.252 38.0859C260.764 36.4095 260.52 34.5459 260.52 32.4951V14.9902H266.867V32.4951C266.867 34.2855 267.111 35.7992 267.6 37.0361C268.104 38.2731 268.739 39.3066 269.504 40.1367C270.269 40.9668 271.107 41.6178 272.019 42.0898C272.93 42.5618 273.793 42.9118 274.606 43.1396C275.437 43.3675 276.161 43.514 276.779 43.5791C277.414 43.6279 277.829 43.6523 278.024 43.6523H289.182V14.9902H295.529V46.8018ZM337.277 50H330.93V41.4062H308.615V50H302.268V32.4951C302.268 29.9398 302.707 27.5879 303.586 25.4395C304.465 23.291 305.686 21.4437 307.248 19.8975C308.811 18.3512 310.658 17.1468 312.79 16.2842C314.922 15.4215 317.25 14.9902 319.772 14.9902H334.079C334.519 14.9902 334.934 15.0716 335.324 15.2344C335.715 15.3971 336.057 15.625 336.35 15.918C336.643 16.2109 336.87 16.5527 337.033 16.9434C337.196 17.334 337.277 17.749 337.277 18.1885V50ZM308.615 35.0586H330.93V21.3379H319.772C319.577 21.3379 319.162 21.3704 318.527 21.4355C317.909 21.4844 317.185 21.6227 316.354 21.8506C315.541 22.0785 314.678 22.4284 313.767 22.9004C312.855 23.3724 312.017 24.0234 311.252 24.8535C310.487 25.6836 309.852 26.7253 309.348 27.9785C308.859 29.2155 308.615 30.721 308.615 32.4951V35.0586ZM379.66 26.7578C379.66 28.2064 379.481 29.5003 379.123 30.6396C378.765 31.779 378.277 32.7881 377.658 33.667C377.056 34.5296 376.356 35.2702 375.559 35.8887C374.761 36.5072 373.923 37.0199 373.044 37.4268C372.181 37.8174 371.302 38.1022 370.407 38.2812C369.528 38.4603 368.698 38.5498 367.917 38.5498L381.174 50H371.359L358.127 38.5498H353.562V32.2021H367.917C368.715 32.137 369.439 31.9743 370.09 31.7139C370.757 31.4372 371.327 31.071 371.799 30.6152C372.287 30.1595 372.661 29.6143 372.922 28.9795C373.182 28.3285 373.312 27.5879 373.312 26.7578V22.7539C373.312 22.3958 373.264 22.1273 373.166 21.9482C373.085 21.7529 372.971 21.6146 372.824 21.5332C372.694 21.4355 372.548 21.3786 372.385 21.3623C372.238 21.346 372.1 21.3379 371.97 21.3379H351.022V50H344.675V18.1885C344.675 17.749 344.756 17.334 344.919 16.9434C345.082 16.5527 345.301 16.2109 345.578 15.918C345.871 15.625 346.213 15.3971 346.604 15.2344C346.994 15.0716 347.417 14.9902 347.873 14.9902H371.97C373.386 14.9902 374.582 15.2507 375.559 15.7715C376.535 16.276 377.325 16.9189 377.927 17.7002C378.545 18.4652 378.985 19.2952 379.245 20.1904C379.522 21.0856 379.66 21.9238 379.66 22.7051V26.7578ZM414.816 35.6934H394.772V29.2969H414.816V35.6934ZM417.673 50H394.772C393.894 50 392.933 49.8454 391.892 49.5361C390.85 49.2269 389.882 48.7223 388.986 48.0225C388.107 47.3063 387.367 46.3867 386.765 45.2637C386.179 44.1243 385.886 42.7327 385.886 41.0889V18.1885C385.886 17.749 385.967 17.334 386.13 16.9434C386.293 16.5527 386.512 16.2109 386.789 15.918C387.082 15.625 387.424 15.3971 387.814 15.2344C388.205 15.0716 388.628 14.9902 389.084 14.9902H417.673V21.3379H392.233V41.0889C392.233 41.9189 392.453 42.5537 392.893 42.9932C393.332 43.4326 393.975 43.6523 394.821 43.6523H417.673V50Z" fill="black"/>
<path d="M63.0342 50V51H64.0342V50H63.0342ZM38.2295 49.8047L38.0151 50.7814L38.0287 50.7844L38.0424 50.787L38.2295 49.8047ZM36.2275 49.1455L35.8172 50.0575L35.8255 50.0612L36.2275 49.1455ZM34.3477 48.0225L33.7308 48.8095L33.7375 48.8147L33.7442 48.8199L34.3477 48.0225ZM32.7363 46.3379L31.9105 46.9019L31.9185 46.9135L31.9267 46.9249L32.7363 46.3379ZM31.6377 44.043L30.6838 44.3433L30.6855 44.3484L31.6377 44.043ZM31.418 22.0215L30.4402 21.812L30.4382 21.8209L30.4365 21.83L31.418 22.0215ZM32.0771 20.0195L32.9891 20.4299L32.9928 20.4215L32.0771 20.0195ZM33.2246 18.1152L34.0117 18.7321L33.2246 18.1152ZM34.9092 16.5283L35.4826 17.3476L35.4866 17.3447L34.9092 16.5283ZM63.0342 14.9902H64.0342V13.9902H63.0342V14.9902ZM63.0342 21.3379V22.3379H64.0342V21.3379H63.0342ZM38.2295 42.9932L37.5096 43.6873L37.5223 43.7004L37.5354 43.713L38.2295 42.9932ZM63.0342 43.6523H64.0342V42.6523H63.0342V43.6523ZM63.0342 49H40.1338V51H63.0342V49ZM40.1338 49C39.621 49 39.0496 48.9429 38.4166 48.8223L38.0424 50.787C38.7765 50.9269 39.4747 51 40.1338 51V49ZM38.4439 48.8279C37.8451 48.6965 37.2405 48.4981 36.6295 48.2299L35.8255 50.0612C36.5492 50.3789 37.2793 50.6199 38.0151 50.7814L38.4439 48.8279ZM36.6379 48.2336C36.0591 47.9731 35.4969 47.6381 34.9511 47.2251L33.7442 48.8199C34.4028 49.3183 35.0938 49.7319 35.8172 50.0574L36.6379 48.2336ZM34.9645 47.2354C34.4392 46.8237 33.9661 46.3305 33.5459 45.7509L31.9267 46.9249C32.4506 47.6474 33.0517 48.2772 33.7308 48.8095L34.9645 47.2354ZM33.5621 45.7739C33.1669 45.1952 32.8407 44.5193 32.5899 43.7375L30.6855 44.3484C30.9881 45.2919 31.3943 46.1459 31.9105 46.9019L33.5621 45.7739ZM32.5915 43.7427C32.3505 42.9769 32.2227 42.0957 32.2227 41.0889H30.2227C30.2227 42.2631 30.3716 43.3513 30.6838 44.3433L32.5915 43.7427ZM32.2227 41.0889V23.9014H30.2227V41.0889H32.2227ZM32.2227 23.9014C32.2227 23.389 32.2797 22.827 32.3995 22.213L30.4365 21.83C30.2959 22.5506 30.2227 23.2419 30.2227 23.9014H32.2227ZM32.3958 22.231C32.5271 21.618 32.7245 21.0179 32.9891 20.4299L31.1652 19.6092C30.8439 20.3233 30.6018 21.0578 30.4402 21.812L32.3958 22.231ZM32.9928 20.4215C33.2504 19.8347 33.5888 19.2717 34.0117 18.7321L32.4376 17.4984C31.9164 18.1632 31.4898 18.8698 31.1615 19.6175L32.9928 20.4215ZM34.0117 18.7321C34.4205 18.2105 34.9092 17.7489 35.4826 17.3476L34.3357 15.7091C33.607 16.2192 32.9727 16.8156 32.4376 17.4984L34.0117 18.7321ZM35.4866 17.3447C36.0623 16.9376 36.7336 16.6064 37.5095 16.3575L36.8987 14.4531C35.9494 14.7575 35.0907 15.175 34.3317 15.7119L35.4866 17.3447ZM37.5095 16.3575C38.2557 16.1181 39.1265 15.9902 40.1338 15.9902V13.9902C38.96 13.9902 37.8777 14.139 36.8987 14.4531L37.5095 16.3575ZM40.1338 15.9902H63.0342V13.9902H40.1338V15.9902ZM62.0342 14.9902V21.3379H64.0342V14.9902H62.0342ZM63.0342 20.3379H40.1338V22.3379H63.0342V20.3379ZM40.1338 20.3379C39.1304 20.3379 38.2057 20.6067 37.5224 21.29L38.9366 22.7042C39.1322 22.5085 39.477 22.3379 40.1338 22.3379V20.3379ZM37.5224 21.29C36.8324 21.9799 36.5703 22.9271 36.5703 23.9502H38.5703C38.5703 23.248 38.7476 22.8931 38.9366 22.7042L37.5224 21.29ZM36.5703 23.9502V41.0889H38.5703V23.9502H36.5703ZM36.5703 41.0889C36.5703 42.0847 36.8434 42.9963 37.5096 43.6873L38.9493 42.299C38.7367 42.0785 38.5703 41.7207 38.5703 41.0889H36.5703ZM37.5354 43.713C38.2263 44.3793 39.138 44.6523 40.1338 44.6523V42.6523C39.502 42.6523 39.1441 42.4859 38.9236 42.2733L37.5354 43.713ZM40.1338 44.6523H63.0342V42.6523H40.1338V44.6523ZM62.0342 43.6523V50H64.0342V43.6523H62.0342ZM75.4365 50V51H76.4365V50H75.4365ZM69.0889 50H68.0889V51H69.0889V50ZM69.0889 14.9902V13.9902H68.0889V14.9902H69.0889ZM75.4365 14.9902H76.4365V13.9902H75.4365V14.9902ZM75.4365 49H69.0889V51H75.4365V49ZM70.0889 50V14.9902H68.0889V50H70.0889ZM69.0889 15.9902H75.4365V13.9902H69.0889V15.9902ZM74.4365 14.9902V50H76.4365V14.9902H74.4365ZM117.575 48.5596L116.666 48.1429L116.659 48.1588L116.652 48.175L117.575 48.5596ZM116.892 49.585L116.184 48.8779L116.892 49.585ZM115.891 50.2441L115.506 49.3211L115.891 50.2441ZM113.449 50.2686L113.098 51.205L113.11 51.2094L113.449 50.2686ZM112.399 49.5605L113.124 48.8718L113.122 48.8689L112.399 49.5605ZM89.2061 25.3418L89.9283 24.6501L88.2061 22.8518V25.3418H89.2061ZM89.2061 50V51H90.2061V50H89.2061ZM82.8584 50H81.8584V51H82.8584V50ZM83.3955 15.9424L82.5751 15.3706L82.5715 15.3759L83.3955 15.9424ZM84.8115 14.7461L84.4358 13.8194L84.4156 13.8276L84.3958 13.8366L84.8115 14.7461ZM86.667 14.5752L86.466 15.5548L86.4782 15.5573L86.4903 15.5595L86.667 14.5752ZM88.3027 15.4541L89.0246 14.7621L89.0221 14.7595L88.3027 15.4541ZM111.496 39.6484L110.774 40.3405L112.496 42.1366V39.6484H111.496ZM111.496 14.9902V13.9902H110.496V14.9902H111.496ZM117.844 14.9902H118.844V13.9902H117.844V14.9902ZM116.844 47.29C116.844 47.6108 116.782 47.8909 116.666 48.1429L118.484 48.9762C118.727 48.447 118.844 47.8807 118.844 47.29H116.844ZM116.652 48.175C116.538 48.4476 116.383 48.6792 116.184 48.8779L117.599 50.2921C117.986 49.9047 118.286 49.4527 118.498 48.9442L116.652 48.175ZM116.184 48.8779C116.007 49.0549 115.786 49.2044 115.506 49.3211L116.275 51.1672C116.777 50.9583 117.222 50.6684 117.599 50.2921L116.184 48.8779ZM115.506 49.3211C115.242 49.4311 114.958 49.4883 114.646 49.4883V51.4883C115.212 51.4883 115.758 51.3827 116.275 51.1672L115.506 49.3211ZM114.646 49.4883C114.382 49.4883 114.098 49.4392 113.788 49.3277L113.11 51.2094C113.614 51.3909 114.128 51.4883 114.646 51.4883V49.4883ZM113.8 49.3322C113.562 49.2429 113.337 49.0961 113.124 48.8718L111.674 50.2493C112.08 50.676 112.555 51.0013 113.098 51.2049L113.8 49.3322ZM113.122 48.8689L89.9283 24.6501L88.4838 26.0334L111.677 50.2522L113.122 48.8689ZM88.2061 25.3418V50H90.2061V25.3418H88.2061ZM89.2061 49H82.8584V51H89.2061V49ZM83.8584 50V17.7002H81.8584V50H83.8584ZM83.8584 17.7002C83.8584 17.245 83.9797 16.8578 84.2195 16.5089L82.5715 15.3759C82.0952 16.0686 81.8584 16.8533 81.8584 17.7002H83.8584ZM84.2159 16.5142C84.4928 16.1169 84.8278 15.8382 85.2273 15.6556L84.3958 13.8366C83.6559 14.1748 83.0469 14.6937 82.5751 15.3706L84.2159 16.5142ZM85.1872 15.6728C85.6072 15.5026 86.0251 15.4643 86.466 15.5548L86.8679 13.5956C86.0394 13.4256 85.2203 13.5013 84.4358 13.8194L85.1872 15.6728ZM86.4903 15.5595C86.9144 15.6356 87.2709 15.8251 87.5833 16.1487L89.0221 14.7595C88.4231 14.1391 87.6891 13.7427 86.8437 13.5909L86.4903 15.5595ZM87.5809 16.1461L110.774 40.3405L112.218 38.9564L89.0246 14.7621L87.5809 16.1461ZM112.496 39.6484V14.9902H110.496V39.6484H112.496ZM111.496 15.9902H117.844V13.9902H111.496V15.9902ZM116.844 14.9902V47.29H118.844V14.9902H116.844ZM154.025 35.6934V36.6934H155.025V35.6934H154.025ZM133.981 35.6934H132.981V36.6934H133.981V35.6934ZM133.981 29.2969V28.2969H132.981V29.2969H133.981ZM154.025 29.2969H155.025V28.2969H154.025V29.2969ZM156.882 50V51H157.882V50H156.882ZM128.195 48.0225L127.564 48.7977L127.571 48.8041L127.579 48.8103L128.195 48.0225ZM125.974 45.2637L125.084 45.721L125.088 45.7287L125.092 45.7362L125.974 45.2637ZM125.998 15.918L125.291 15.2109L125.281 15.221L125.271 15.2313L125.998 15.918ZM156.882 14.9902H157.882V13.9902H156.882V14.9902ZM156.882 21.3379V22.3379H157.882V21.3379H156.882ZM131.442 21.3379V20.3379H130.442V21.3379H131.442ZM156.882 43.6523H157.882V42.6523H156.882V43.6523ZM154.025 34.6934H133.981V36.6934H154.025V34.6934ZM134.981 35.6934V29.2969H132.981V35.6934H134.981ZM133.981 30.2969H154.025V28.2969H133.981V30.2969ZM153.025 29.2969V35.6934H155.025V29.2969H153.025ZM156.882 49H133.981V51H156.882V49ZM133.981 49C133.218 49 132.355 48.8655 131.385 48.5775L130.816 50.4948C131.929 50.8253 132.987 51 133.981 51V49ZM131.385 48.5775C130.469 48.3055 129.612 47.8609 128.811 47.2347L127.579 48.8103C128.569 49.5838 129.649 50.1482 130.816 50.4948L131.385 48.5775ZM128.827 47.2472C128.062 46.6242 127.402 45.8122 126.855 44.7911L125.092 45.7362C125.749 46.9613 126.57 47.9884 127.564 48.7977L128.827 47.2472ZM126.863 44.8063C126.367 43.8428 126.095 42.6174 126.095 41.0889H124.095C124.095 42.8481 124.408 44.4059 125.084 45.721L126.863 44.8063ZM126.095 41.0889V18.1885H124.095V41.0889H126.095ZM126.095 18.1885C126.095 17.8759 126.152 17.592 126.262 17.328L124.416 16.5587C124.2 17.0759 124.095 17.6222 124.095 18.1885H126.095ZM126.262 17.328C126.381 17.0434 126.536 16.8052 126.725 16.6046L125.271 15.2313C124.907 15.6166 124.623 16.0621 124.416 16.5587L126.262 17.328ZM126.705 16.6251C126.904 16.4265 127.135 16.2711 127.408 16.1575L126.639 14.3113C126.13 14.5232 125.678 14.8235 125.291 15.2109L126.705 16.6251ZM127.408 16.1575C127.668 16.0493 127.959 15.9902 128.293 15.9902V13.9902C127.715 13.9902 127.16 14.094 126.639 14.3113L127.408 16.1575ZM128.293 15.9902H156.882V13.9902H128.293V15.9902ZM155.882 14.9902V21.3379H157.882V14.9902H155.882ZM156.882 20.3379H131.442V22.3379H156.882V20.3379ZM130.442 21.3379V41.0889H132.442V21.3379H130.442ZM130.442 41.0889C130.442 42.0923 130.711 43.017 131.394 43.7003L132.809 42.2861C132.613 42.0904 132.442 41.7456 132.442 41.0889H130.442ZM131.394 43.7003C132.081 44.3869 133.017 44.6523 134.03 44.6523V42.6523C133.351 42.6523 133.001 42.4783 132.809 42.2861L131.394 43.7003ZM134.03 44.6523H156.882V42.6523H134.03V44.6523ZM155.882 43.6523V50H157.882V43.6523H155.882ZM212.448 43.0908L211.496 42.7838L211.493 42.7934L212.448 43.0908ZM207.199 48.999L206.784 48.0893L207.199 48.999ZM204.904 49.7559L204.7 48.7769L204.696 48.7778L204.904 49.7559ZM178.244 50H177.244V51H178.244V50ZM178.244 43.6523V42.6523H177.244V43.6523H178.244ZM205.563 42.5781L204.84 41.8876L204.832 41.8964L205.563 42.5781ZM205.539 36.8164L204.799 37.4891L204.807 37.4981L204.816 37.5069L205.539 36.8164ZM204.318 35.9863L203.936 36.9104L203.947 36.9148L204.318 35.9863ZM184.812 35.1562L184.511 36.1101L184.523 36.1137L184.812 35.1562ZM181.491 33.374L180.863 34.1525L180.87 34.1573L181.491 33.374ZM178.952 30.1758L178.06 30.6274L178.064 30.6361L178.952 30.1758ZM178.952 20.5322L178.064 20.0719L178.062 20.0761L178.952 20.5322ZM181.491 17.334L182.119 18.1124L182.12 18.1112L181.491 17.334ZM184.812 15.5518L185.1 16.5093L185.112 16.5055L184.812 15.5518ZM209.738 14.9902H210.738V13.9902H209.738V14.9902ZM209.738 21.3379V22.3379H210.738V21.3379H209.738ZM185.3 22.4365L184.569 21.7542L184.561 21.763L185.3 22.4365ZM185.3 28.2471L184.568 28.9288L184.576 28.9374L184.584 28.9458L185.3 28.2471ZM202.78 29.2969L202.804 28.2972L202.792 28.2969H202.78V29.2969ZM204.953 29.5898L204.725 30.5635L204.735 30.5658L204.745 30.5679L204.953 29.5898ZM207.224 30.3711L206.792 31.2733L206.8 31.2768L207.224 30.3711ZM209.396 31.7383L208.767 32.5155L208.773 32.5201L208.779 32.5246L209.396 31.7383ZM211.203 33.6914L210.377 34.2542L210.381 34.2601L210.385 34.266L211.203 33.6914ZM211.937 39.6973C211.937 40.8647 211.785 41.89 211.497 42.7838L213.4 43.3978C213.763 42.2734 213.937 41.0363 213.937 39.6973H211.937ZM211.493 42.7934C211.21 43.7035 210.835 44.4908 210.377 45.1647L212.03 46.2903C212.613 45.4343 213.068 44.4639 213.403 43.3882L211.493 42.7934ZM210.377 45.1647C209.913 45.8461 209.375 46.4181 208.763 46.8874L209.981 48.474C210.769 47.869 211.452 47.1389 212.03 46.2903L210.377 45.1647ZM208.763 46.8874C208.119 47.3818 207.459 47.7811 206.784 48.0893L207.615 49.9087C208.437 49.5334 209.225 49.0538 209.981 48.474L208.763 46.8874ZM206.784 48.0893C206.101 48.4012 205.407 48.6298 204.7 48.7769L205.108 50.7348C205.965 50.5564 206.8 50.2804 207.615 49.9087L206.784 48.0893ZM204.696 48.7778C203.99 48.928 203.336 49 202.731 49V51C203.494 51 204.289 50.9092 205.112 50.734L204.696 48.7778ZM202.731 49H178.244V51H202.731V49ZM179.244 50V43.6523H177.244V50H179.244ZM178.244 44.6523H202.731V42.6523H178.244V44.6523ZM202.731 44.6523C204.156 44.6523 205.394 44.227 206.295 43.2599L204.832 41.8964C204.398 42.3615 203.748 42.6523 202.731 42.6523V44.6523ZM206.287 43.2686C207.185 42.3278 207.589 41.0999 207.589 39.6973H205.589C205.589 40.7034 205.309 41.3962 204.84 41.8876L206.287 43.2686ZM207.589 39.6973C207.589 39.0086 207.483 38.3533 207.259 37.7417L205.381 38.4302C205.515 38.7952 205.589 39.214 205.589 39.6973H207.589ZM207.259 37.7417C207.035 37.1311 206.704 36.5884 206.262 36.1259L204.816 37.5069C205.058 37.7606 205.247 38.0642 205.381 38.4302L207.259 37.7417ZM206.279 36.1437C205.843 35.6641 205.306 35.3045 204.69 35.0579L203.947 36.9148C204.307 37.0588 204.584 37.2526 204.799 37.4891L206.279 36.1437ZM204.701 35.0623C204.091 34.81 203.429 34.6934 202.731 34.6934V36.6934C203.205 36.6934 203.602 36.772 203.936 36.9103L204.701 35.0623ZM202.731 34.6934H188.132V36.6934H202.731V34.6934ZM188.132 34.6934C187.222 34.6934 186.214 34.5344 185.1 34.1988L184.523 36.1137C185.786 36.4943 186.991 36.6934 188.132 36.6934V34.6934ZM185.112 34.2025C184.046 33.8667 183.047 33.3325 182.113 32.5907L180.87 34.1573C181.986 35.0432 183.2 35.6971 184.511 36.11L185.112 34.2025ZM182.119 32.5956C181.232 31.8805 180.469 30.9287 179.84 29.7155L178.064 30.6361C178.802 32.0595 179.732 33.24 180.863 34.1524L182.119 32.5956ZM179.844 29.7242C179.265 28.5803 178.951 27.133 178.951 25.3418H176.951C176.951 27.3591 177.304 29.1346 178.06 30.6274L179.844 29.7242ZM178.951 25.3418C178.951 23.5499 179.266 22.1132 179.842 20.9883L178.062 20.0761C177.304 21.5554 176.951 23.3251 176.951 25.3418H178.951ZM179.84 20.9925C180.469 19.7793 181.232 18.8275 182.119 18.1124L180.863 16.5556C179.732 17.468 178.802 18.6485 178.064 20.0719L179.84 20.9925ZM182.12 18.1112C183.051 17.3575 184.044 16.8276 185.1 16.5092L184.523 14.5943C183.203 14.9921 181.982 15.6503 180.862 16.5567L182.12 18.1112ZM185.112 16.5055C186.223 16.1555 187.228 15.9902 188.132 15.9902V13.9902C186.985 13.9902 185.776 14.1993 184.511 14.598L185.112 16.5055ZM188.132 15.9902H209.738V13.9902H188.132V15.9902ZM208.738 14.9902V21.3379H210.738V14.9902H208.738ZM209.738 20.3379H188.132V22.3379H209.738V20.3379ZM188.132 20.3379C186.711 20.3379 185.479 20.7787 184.569 21.7542L186.031 23.1188C186.488 22.6295 187.144 22.3379 188.132 22.3379V20.3379ZM184.561 21.763C183.691 22.7175 183.299 23.9447 183.299 25.3418H185.299C185.299 24.3301 185.574 23.6204 186.039 23.11L184.561 21.763ZM183.299 25.3418C183.299 26.7501 183.688 27.9847 184.568 28.9288L186.031 27.5653C185.577 27.0772 185.299 26.3749 185.299 25.3418H183.299ZM184.584 28.9458C185.498 29.8811 186.724 30.2969 188.132 30.2969V28.2969C187.13 28.2969 186.469 28.0128 186.015 27.5483L184.584 28.9458ZM188.132 30.2969H202.731V28.2969H188.132V30.2969ZM202.731 30.2969H202.78V28.2969H202.731V30.2969ZM202.756 30.2966C203.362 30.311 204.018 30.3979 204.725 30.5635L205.181 28.6162C204.359 28.4237 203.566 28.3153 202.804 28.2972L202.756 30.2966ZM204.745 30.5679C205.428 30.7133 206.11 30.9471 206.792 31.2732L207.655 29.469C206.84 29.0789 206.008 28.7919 205.161 28.6117L204.745 30.5679ZM206.8 31.2768C207.488 31.5991 208.144 32.011 208.767 32.5155L210.026 30.961C209.282 30.3588 208.489 29.8592 207.648 29.4654L206.8 31.2768ZM208.779 32.5246C209.377 32.9944 209.91 33.5685 210.377 34.2542L212.03 33.1286C211.455 32.2843 210.784 31.5564 210.014 30.952L208.779 32.5246ZM210.385 34.266C210.856 34.9373 211.236 35.7206 211.518 36.6255L213.427 36.0307C213.091 34.95 212.624 33.9755 212.022 33.1168L210.385 34.266ZM211.518 36.6255C211.792 37.5047 211.937 38.5249 211.937 39.6973H213.937C213.937 38.3631 213.772 37.1372 213.427 36.0307L211.518 36.6255ZM254.294 40.4541L253.337 40.1638L253.335 40.1708L254.294 40.4541ZM252.463 44.3604L251.636 43.7977L251.631 43.8057L252.463 44.3604ZM249.606 47.4365L248.99 46.649L248.985 46.6534L249.606 47.4365ZM245.896 49.5117L245.549 48.5736L243.88 49.1897L245.274 50.2953L245.896 49.5117ZM253.317 55.3955V56.3955H256.189L253.939 54.6119L253.317 55.3955ZM244.113 55.3955L243.487 56.1749L243.761 56.3955H244.113V55.3955ZM238.01 50.4883L238.636 49.7089L238.362 49.4883H238.01V50.4883ZM225.925 49.4141L225.546 50.3396L225.553 50.3425L225.925 49.4141ZM218.21 41.7236L217.284 42.1023L217.287 42.1094L218.21 41.7236ZM218.21 23.291L217.286 22.9082L217.284 22.9124L218.21 23.291ZM221.286 18.6523L221.989 19.3639L221.993 19.3595L221.286 18.6523ZM225.925 15.6006L225.546 14.675L225.925 15.6006ZM246.164 15.6006L245.782 16.5249L245.785 16.5261L246.164 15.6006ZM250.803 18.6523L250.096 19.3595L250.1 19.3639L250.803 18.6523ZM253.854 23.291L252.928 23.6667L252.929 23.6696L253.854 23.291ZM247.995 25.7568L247.061 26.1128L247.064 26.1219L247.068 26.1308L247.995 25.7568ZM246.311 23.1445L245.596 23.8436L245.603 23.8517L245.611 23.8595L246.311 23.1445ZM243.698 21.46L243.324 22.3874L243.333 22.391L243.342 22.3944L243.698 21.46ZM228.366 21.46L228.727 22.3926L228.735 22.3895L228.366 21.46ZM225.754 23.1445L226.453 23.8596L226.461 23.8516L225.754 23.1445ZM224.045 25.7568L223.115 25.388L223.112 25.3958L224.045 25.7568ZM224.045 39.2578L223.11 39.6138L223.114 39.6228L223.117 39.6318L224.045 39.2578ZM225.754 41.8701L225.047 42.5773L225.055 42.5851L225.754 41.8701ZM228.366 43.5547L227.992 44.4821L228.001 44.4857L228.01 44.4892L228.366 43.5547ZM243.674 43.5547L244.035 44.4873L244.043 44.4842L243.674 43.5547ZM246.311 41.8701L247.01 42.5852L247.018 42.5772L246.311 41.8701ZM247.995 39.2578L247.066 38.889L247.063 38.8968L247.995 39.2578ZM253.953 35.8398C253.953 37.3765 253.746 38.8162 253.337 40.1638L255.251 40.7444C255.721 39.1949 255.953 37.5584 255.953 35.8398H253.953ZM253.335 40.1708C252.94 41.509 252.372 42.716 251.636 43.7977L253.29 44.923C254.148 43.6609 254.802 42.2638 255.253 40.7374L253.335 40.1708ZM251.631 43.8057C250.909 44.8878 250.03 45.8349 248.99 46.649L250.223 48.224C251.429 47.2803 252.454 46.1766 253.295 44.9151L251.631 43.8057ZM248.985 46.6534C247.963 47.4643 246.82 48.1046 245.549 48.5736L246.242 50.4499C247.705 49.9097 249.036 49.1666 250.228 48.2196L248.985 46.6534ZM245.274 50.2953L252.696 56.1791L253.939 54.6119L246.517 48.7281L245.274 50.2953ZM253.317 54.3955H244.113V56.3955H253.317V54.3955ZM244.74 54.6162L238.636 49.7089L237.383 51.2676L243.487 56.1749L244.74 54.6162ZM238.01 49.4883H231.76V51.4883H238.01V49.4883ZM231.76 49.4883C229.776 49.4883 227.958 49.1504 226.296 48.4856L225.553 50.3425C227.472 51.11 229.544 51.4883 231.76 51.4883V49.4883ZM226.303 48.4885C224.63 47.8038 223.197 46.8587 221.993 45.6552L220.579 47.0694C221.98 48.4701 223.639 49.5595 225.546 50.3396L226.303 48.4885ZM221.993 45.6552C220.788 44.4501 219.834 43.0147 219.133 41.3378L217.287 42.1094C218.084 44.0133 219.18 45.6704 220.579 47.0694L221.993 45.6552ZM219.136 41.345C218.457 39.6866 218.111 37.8555 218.111 35.8398H216.111C216.111 38.0885 216.498 40.18 217.284 42.1023L219.136 41.345ZM218.111 35.8398V29.1504H216.111V35.8398H218.111ZM218.111 29.1504C218.111 27.1521 218.457 25.329 219.136 23.6696L217.284 22.9124C216.498 24.8338 216.111 26.9169 216.111 29.1504H218.111ZM219.134 23.6739C219.835 21.9819 220.788 20.5497 221.989 19.3639L220.583 17.9408C219.18 19.3266 218.082 20.9869 217.286 22.9082L219.134 23.6739ZM221.993 19.3595C223.197 18.156 224.63 17.2109 226.303 16.5261L225.546 14.675C223.639 15.4552 221.98 16.5445 220.579 17.9452L221.993 19.3595ZM226.303 16.5261C227.964 15.8469 229.779 15.502 231.76 15.502V13.502C229.541 13.502 227.467 13.8894 225.546 14.675L226.303 16.5261ZM231.76 15.502H240.354V13.502H231.76V15.502ZM240.354 15.502C242.335 15.502 244.14 15.847 245.782 16.5249L246.546 14.6763C244.64 13.8894 242.572 13.502 240.354 13.502V15.502ZM245.785 16.5261C247.459 17.2109 248.892 18.156 250.096 19.3595L251.51 17.9452C250.109 16.5445 248.45 15.4552 246.543 14.675L245.785 16.5261ZM250.1 19.3639C251.299 20.548 252.243 21.9777 252.928 23.6667L254.781 22.9153C254.001 20.991 252.91 19.3283 251.505 17.9408L250.1 19.3639ZM252.929 23.6696C253.608 25.329 253.953 27.1521 253.953 29.1504H255.953C255.953 26.9169 255.566 24.8338 254.78 22.9124L252.929 23.6696ZM253.953 29.1504V35.8398H255.953V29.1504H253.953ZM249.605 29.1504C249.605 27.7882 249.384 26.5275 248.923 25.3829L247.068 26.1308C247.42 27.0044 247.605 28.006 247.605 29.1504H249.605ZM248.93 25.4008C248.491 24.25 247.853 23.254 247.01 22.4295L245.611 23.8595C246.233 24.4674 246.718 25.2129 247.061 26.1128L248.93 25.4008ZM247.026 22.4454C246.201 21.6022 245.205 20.9639 244.054 20.5255L243.342 22.3944C244.242 22.7373 244.988 23.222 245.596 23.8436L247.026 22.4454ZM244.072 20.5325C242.931 20.0722 241.687 19.8496 240.354 19.8496V21.8496C241.462 21.8496 242.448 22.0339 243.324 22.3874L244.072 20.5325ZM240.354 19.8496H231.76V21.8496H240.354V19.8496ZM231.76 19.8496C230.412 19.8496 229.154 20.0717 227.997 20.5305L228.735 22.3895C229.63 22.0345 230.634 21.8496 231.76 21.8496V19.8496ZM228.005 20.5274C226.872 20.966 225.882 21.6022 225.047 22.4374L226.461 23.8516C227.091 23.222 227.842 22.7352 228.727 22.3925L228.005 20.5274ZM225.055 22.4295C224.215 23.251 223.57 24.2425 223.115 25.388L224.974 26.1257C225.334 25.2204 225.828 24.4703 226.453 23.8595L225.055 22.4295ZM223.112 25.3958C222.671 26.5368 222.459 27.7929 222.459 29.1504H224.459C224.459 28.0013 224.638 26.9951 224.977 26.1178L223.112 25.3958ZM222.459 29.1504V35.8398H224.459V29.1504H222.459ZM222.459 35.8398C222.459 37.1977 222.671 38.4598 223.11 39.6138L224.979 38.9018C224.638 38.0051 224.459 36.9885 224.459 35.8398H222.459ZM223.117 39.6318C223.572 40.7592 224.215 41.7449 225.047 42.5772L226.461 41.163C225.828 40.5305 225.332 39.7746 224.972 38.8838L223.117 39.6318ZM225.055 42.5851C225.886 43.3982 226.87 44.0294 227.992 44.4821L228.74 42.6272C227.845 42.2661 227.086 41.7743 226.453 41.1551L225.055 42.5851ZM228.01 44.4892C229.163 44.9283 230.417 45.1406 231.76 45.1406V43.1406C230.629 43.1406 229.62 42.9624 228.722 42.6202L228.01 44.4892ZM231.76 45.1406H240.305V43.1406H231.76V45.1406ZM240.305 45.1406C241.648 45.1406 242.895 44.9284 244.035 44.4873L243.313 42.6221C242.434 42.9623 241.436 43.1406 240.305 43.1406V45.1406ZM244.043 44.4842C245.182 44.0322 246.175 43.4009 247.01 42.5851L245.611 41.1551C244.981 41.7716 244.217 42.2634 243.305 42.6252L244.043 44.4842ZM247.018 42.5772C247.853 41.742 248.489 40.7518 248.928 39.6188L247.063 38.8968C246.72 39.7821 246.233 40.5334 245.603 41.163L247.018 42.5772ZM248.925 39.6267C249.384 38.469 249.605 37.2023 249.605 35.8398H247.605C247.605 36.9839 247.42 37.9958 247.066 38.889L248.925 39.6267ZM249.605 35.8398V29.1504H247.605V35.8398H249.605ZM294.602 49.0967L295.288 49.8237L295.299 49.8139L295.309 49.8038L294.602 49.0967ZM269.895 48.2178L269.461 49.1189L269.468 49.1222L269.475 49.1254L269.895 48.2178ZM266.257 45.874L265.619 46.644L266.257 45.874ZM263.254 42.5293L262.415 43.0743L262.419 43.0804L262.423 43.0864L263.254 42.5293ZM261.252 38.0859L260.292 38.3656L260.293 38.3681L261.252 38.0859ZM260.52 14.9902V13.9902H259.52V14.9902H260.52ZM266.867 14.9902H267.867V13.9902H266.867V14.9902ZM267.6 37.0361L266.669 37.4033L266.674 37.4138L267.6 37.0361ZM269.504 40.1367L268.769 40.8144L269.504 40.1367ZM274.606 43.1396L274.337 44.1026L274.342 44.104L274.606 43.1396ZM276.779 43.5791L276.675 44.5736L276.689 44.5751L276.703 44.5762L276.779 43.5791ZM289.182 43.6523V44.6523H290.182V43.6523H289.182ZM289.182 14.9902V13.9902H288.182V14.9902H289.182ZM295.529 14.9902H296.529V13.9902H295.529V14.9902ZM294.529 46.8018C294.529 47.1357 294.47 47.427 294.362 47.6867L296.208 48.4559C296.426 47.9343 296.529 47.3793 296.529 46.8018H294.529ZM294.362 47.6867C294.248 47.9594 294.093 48.191 293.894 48.3896L295.309 49.8038C295.696 49.4165 295.996 48.9645 296.208 48.4559L294.362 47.6867ZM293.915 48.3697C293.714 48.5592 293.476 48.7142 293.192 48.8328L293.961 50.6789C294.457 50.472 294.903 50.1876 295.288 49.8237L293.915 48.3697ZM293.192 48.8328C292.927 48.9428 292.644 49 292.331 49V51C292.897 51 293.444 50.8944 293.961 50.6789L293.192 48.8328ZM292.331 49H278.024V51H292.331V49ZM278.024 49C276.746 49 275.449 48.8615 274.13 48.5822L273.716 50.5389C275.164 50.8456 276.601 51 278.024 51V49ZM274.13 48.5822C272.821 48.305 271.549 47.8814 270.314 47.3101L269.475 49.1254C270.844 49.7586 272.258 50.2301 273.716 50.5389L274.13 48.5822ZM270.328 47.3166C269.118 46.7346 267.974 45.9981 266.895 45.104L265.619 46.644C266.818 47.638 268.099 48.4639 269.461 49.1189L270.328 47.3166ZM266.895 45.104C265.833 44.2241 264.896 43.1819 264.084 41.9722L262.423 43.0864C263.337 44.4483 264.402 45.6359 265.619 46.644L266.895 45.104ZM264.092 41.9843C263.304 40.7722 262.675 39.3814 262.211 37.8038L260.293 38.3681C260.805 40.1108 261.511 41.6822 262.415 43.0743L264.092 41.9843ZM262.212 37.8063C261.754 36.2349 261.52 34.4673 261.52 32.4951H259.52C259.52 34.6245 259.773 36.5841 260.292 38.3656L262.212 37.8063ZM261.52 32.4951V14.9902H259.52V32.4951H261.52ZM260.52 15.9902H266.867V13.9902H260.52V15.9902ZM265.867 14.9902V32.4951H267.867V14.9902H265.867ZM265.867 32.4951C265.867 34.3703 266.122 36.0166 266.669 37.4033L268.53 36.669C268.101 35.5817 267.867 34.2007 267.867 32.4951H265.867ZM266.674 37.4138C267.215 38.7415 267.909 39.882 268.769 40.8144L270.239 39.459C269.569 38.7313 268.993 37.8047 268.526 36.6584L266.674 37.4138ZM268.769 40.8144C269.605 41.7216 270.534 42.4472 271.559 42.9778L272.478 41.2018C271.68 40.7885 270.933 40.212 270.239 39.459L268.769 40.8144ZM271.559 42.9778C272.518 43.4748 273.445 43.8529 274.337 44.1026L274.876 42.1767C274.14 41.9707 273.342 41.6489 272.478 41.2018L271.559 42.9778ZM274.342 44.104C275.206 44.3412 275.986 44.5011 276.675 44.5736L276.884 42.5846C276.336 42.5269 275.667 42.3938 274.871 42.1753L274.342 44.104ZM276.703 44.5762C277.329 44.6243 277.784 44.6523 278.024 44.6523V42.6523C277.875 42.6523 277.5 42.6315 276.856 42.582L276.703 44.5762ZM278.024 44.6523H289.182V42.6523H278.024V44.6523ZM290.182 43.6523V14.9902H288.182V43.6523H290.182ZM289.182 15.9902H295.529V13.9902H289.182V15.9902ZM294.529 14.9902V46.8018H296.529V14.9902H294.529ZM337.277 50V51H338.277V50H337.277ZM330.93 50H329.93V51H330.93V50ZM330.93 41.4062H331.93V40.4062H330.93V41.4062ZM308.615 41.4062V40.4062H307.615V41.4062H308.615ZM308.615 50V51H309.615V50H308.615ZM302.268 50H301.268V51H302.268V50ZM308.615 35.0586H307.615V36.0586H308.615V35.0586ZM330.93 35.0586V36.0586H331.93V35.0586H330.93ZM330.93 21.3379H331.93V20.3379H330.93V21.3379ZM318.527 21.4355L318.606 22.4324L318.618 22.4315L318.629 22.4303L318.527 21.4355ZM316.354 21.8506L316.09 20.8862L316.085 20.8876L316.354 21.8506ZM311.252 24.8535L310.517 24.1758L311.252 24.8535ZM309.348 27.9785L308.42 27.605L308.418 27.6113L309.348 27.9785ZM337.277 49H330.93V51H337.277V49ZM331.93 50V41.4062H329.93V50H331.93ZM330.93 40.4062H308.615V42.4062H330.93V40.4062ZM307.615 41.4062V50H309.615V41.4062H307.615ZM308.615 49H302.268V51H308.615V49ZM303.268 50V32.4951H301.268V50H303.268ZM303.268 32.4951C303.268 30.0565 303.686 27.8348 304.511 25.8181L302.66 25.0608C301.728 27.341 301.268 29.8231 301.268 32.4951H303.268ZM304.511 25.8181C305.342 23.7871 306.49 22.0546 307.951 20.6083L306.545 19.1867C304.881 20.8328 303.587 22.7949 302.66 25.0608L304.511 25.8181ZM307.951 20.6083C309.416 19.1594 311.15 18.0265 313.165 17.2112L312.415 15.3572C310.166 16.2671 308.206 17.5431 306.545 19.1867L307.951 20.6083ZM313.165 17.2112C315.167 16.4012 317.366 15.9902 319.772 15.9902V13.9902C317.134 13.9902 314.677 14.4419 312.415 15.3572L313.165 17.2112ZM319.772 15.9902H334.079V13.9902H319.772V15.9902ZM334.079 15.9902C334.392 15.9902 334.676 16.0474 334.94 16.1575L335.709 14.3113C335.192 14.0958 334.645 13.9902 334.079 13.9902V15.9902ZM334.94 16.1575C335.212 16.2711 335.444 16.4265 335.643 16.6251L337.057 15.2109C336.669 14.8235 336.217 14.5232 335.709 14.3113L334.94 16.1575ZM335.643 16.6251C335.841 16.8237 335.997 17.0553 336.11 17.328L337.956 16.5587C337.744 16.0502 337.444 15.5982 337.057 15.2109L335.643 16.6251ZM336.11 17.328C336.22 17.592 336.277 17.8759 336.277 18.1885H338.277C338.277 17.6222 338.172 17.0759 337.956 16.5587L336.11 17.328ZM336.277 18.1885V50H338.277V18.1885H336.277ZM308.615 36.0586H330.93V34.0586H308.615V36.0586ZM331.93 35.0586V21.3379H329.93V35.0586H331.93ZM330.93 20.3379H319.772V22.3379H330.93V20.3379ZM319.772 20.3379C319.516 20.3379 319.048 20.3769 318.425 20.4408L318.629 22.4303C319.276 22.364 319.638 22.3379 319.772 22.3379V20.3379ZM318.449 20.4386C317.748 20.4939 316.959 20.6476 316.09 20.8863L316.619 22.8149C317.41 22.5978 318.069 22.4748 318.606 22.4324L318.449 20.4386ZM316.085 20.8876C315.193 21.1373 314.266 21.5154 313.307 22.0124L314.226 23.7884C315.09 23.3414 315.888 23.0196 316.624 22.8135L316.085 20.8876ZM313.307 22.0124C312.282 22.543 311.353 23.2687 310.517 24.1758L311.987 25.5312C312.681 24.7782 313.428 24.2018 314.226 23.7884L313.307 22.0124ZM310.517 24.1758C309.655 25.1105 308.961 26.2611 308.42 27.605L310.275 28.352C310.743 27.1894 311.319 26.2567 311.987 25.5312L310.517 24.1758ZM308.418 27.6113C307.87 28.9971 307.615 30.6349 307.615 32.4951H309.615C309.615 30.8071 309.848 29.4339 310.278 28.3457L308.418 27.6113ZM307.615 32.4951V35.0586H309.615V32.4951H307.615ZM377.658 33.667L376.84 33.0915L376.838 33.0946L377.658 33.667ZM373.044 37.4268L373.456 38.3377L373.464 38.3342L373.044 37.4268ZM370.407 38.2812L370.211 37.3007L370.208 37.3014L370.407 38.2812ZM367.917 38.5498V37.5498H365.229L367.263 39.3066L367.917 38.5498ZM381.174 50V51H383.861L381.827 49.2432L381.174 50ZM371.359 50L370.705 50.7562L370.987 51H371.359V50ZM358.127 38.5498L358.781 37.7936L358.5 37.5498H358.127V38.5498ZM353.562 38.5498H352.562V39.5498H353.562V38.5498ZM353.562 32.2021V31.2021H352.562V32.2021H353.562ZM367.917 32.2021V33.2021H367.958L367.998 33.1988L367.917 32.2021ZM370.09 31.7139L370.461 32.6424L370.473 32.6376L370.09 31.7139ZM371.799 30.6152L371.117 29.8842L371.11 29.89L371.104 29.8958L371.799 30.6152ZM372.922 28.9795L373.847 29.3591L373.85 29.3509L372.922 28.9795ZM373.166 21.9482L372.243 22.3329L372.263 22.3812L372.288 22.4271L373.166 21.9482ZM372.824 21.5332L372.224 22.3332L372.279 22.3742L372.339 22.4074L372.824 21.5332ZM372.385 21.3623L372.274 22.3562L372.285 22.3573L372.385 21.3623ZM351.022 21.3379V20.3379H350.022V21.3379H351.022ZM351.022 50V51H352.022V50H351.022ZM344.675 50H343.675V51H344.675V50ZM344.919 16.9434L345.842 17.328L344.919 16.9434ZM345.578 15.918L344.871 15.2109L344.861 15.221L344.851 15.2313L345.578 15.918ZM375.559 15.7715L375.088 16.6539L375.1 16.6599L375.559 15.7715ZM377.927 17.7002L377.135 18.3107L377.142 18.3199L377.149 18.3289L377.927 17.7002ZM379.245 20.1904L378.285 20.4698L378.287 20.4778L378.29 20.4857L379.245 20.1904ZM378.66 26.7578C378.66 28.1256 378.491 29.3156 378.169 30.3398L380.077 30.9395C380.471 29.685 380.66 28.2872 380.66 26.7578H378.66ZM378.169 30.3398C377.838 31.3916 377.393 32.3057 376.84 33.0915L378.476 34.2425C379.16 33.2705 379.691 32.1663 380.077 30.9395L378.169 30.3398ZM376.838 33.0946C376.291 33.8781 375.66 34.5443 374.946 35.0985L376.171 36.6789C377.052 35.9961 377.821 35.1811 378.478 34.2394L376.838 33.0946ZM374.946 35.0985C374.205 35.6727 373.431 36.1454 372.624 36.5193L373.464 38.3342C374.414 37.8943 375.317 37.3417 376.171 36.6789L374.946 35.0985ZM372.631 36.5158C371.835 36.8762 371.029 37.1371 370.211 37.3007L370.603 39.2618C371.576 39.0673 372.527 38.7585 373.456 38.3377L372.631 36.5158ZM370.208 37.3014C369.385 37.469 368.622 37.5498 367.917 37.5498V39.5498C368.774 39.5498 369.672 39.4516 370.607 39.2611L370.208 37.3014ZM367.263 39.3066L380.52 50.7568L381.827 49.2432L368.571 37.793L367.263 39.3066ZM381.174 49H371.359V51H381.174V49ZM372.014 49.2438L358.781 37.7936L357.473 39.306L370.705 50.7562L372.014 49.2438ZM358.127 37.5498H353.562V39.5498H358.127V37.5498ZM354.562 38.5498V32.2021H352.562V38.5498H354.562ZM353.562 33.2021H367.917V31.2021H353.562V33.2021ZM367.998 33.1988C368.882 33.1267 369.705 32.9447 370.461 32.6423L369.718 30.7854C369.172 31.0039 368.547 31.1474 367.836 31.2055L367.998 33.1988ZM370.473 32.6376C371.244 32.3178 371.923 31.8858 372.493 31.3346L371.104 29.8958C370.731 30.2561 370.27 30.5566 369.707 30.7901L370.473 32.6376ZM372.481 31.3463C373.078 30.7895 373.533 30.1234 373.847 29.359L371.997 28.5999C371.789 29.1051 371.497 29.5295 371.117 29.8842L372.481 31.3463ZM373.85 29.3509C374.166 28.5621 374.312 27.6922 374.312 26.7578H372.312C372.312 27.4836 372.199 28.0948 371.993 28.6081L373.85 29.3509ZM374.312 26.7578V22.7539H372.312V26.7578H374.312ZM374.312 22.7539C374.312 22.3377 374.261 21.868 374.044 21.4694L372.288 22.4271C372.272 22.3973 372.281 22.4003 372.292 22.4628C372.303 22.5231 372.312 22.6175 372.312 22.7539H374.312ZM374.089 21.5636C373.944 21.2161 373.7 20.8758 373.31 20.659L372.339 22.4074C372.295 22.3831 372.265 22.3545 372.248 22.3337C372.232 22.3148 372.233 22.31 372.243 22.3329L374.089 21.5636ZM373.424 20.7332C373.147 20.5255 372.828 20.4016 372.484 20.3673L372.285 22.3573C372.28 22.3568 372.269 22.3549 372.254 22.3492C372.24 22.3436 372.229 22.337 372.224 22.3332L373.424 20.7332ZM372.495 20.3684C372.317 20.3486 372.141 20.3379 371.97 20.3379V22.3379C372.059 22.3379 372.16 22.3435 372.274 22.3562L372.495 20.3684ZM371.97 20.3379H351.022V22.3379H371.97V20.3379ZM350.022 21.3379V50H352.022V21.3379H350.022ZM351.022 49H344.675V51H351.022V49ZM345.675 50V18.1885H343.675V50H345.675ZM345.675 18.1885C345.675 17.8759 345.732 17.592 345.842 17.328L343.996 16.5587C343.78 17.0759 343.675 17.6222 343.675 18.1885H345.675ZM345.842 17.328C345.961 17.0434 346.116 16.8052 346.305 16.6046L344.851 15.2313C344.487 15.6166 344.203 16.0621 343.996 16.5587L345.842 17.328ZM346.285 16.6251C346.484 16.4265 346.715 16.2711 346.988 16.1575L346.219 14.3113C345.71 14.5232 345.258 14.8235 344.871 15.2109L346.285 16.6251ZM346.988 16.1575C347.248 16.0493 347.539 15.9902 347.873 15.9902V13.9902C347.296 13.9902 346.741 14.094 346.219 14.3113L346.988 16.1575ZM347.873 15.9902H371.97V13.9902H347.873V15.9902ZM371.97 15.9902C373.266 15.9902 374.291 16.2288 375.088 16.6538L376.029 14.8891C374.873 14.2725 373.505 13.9902 371.97 13.9902V15.9902ZM375.1 16.6599C375.961 17.105 376.632 17.658 377.135 18.3107L378.719 17.0897C378.017 16.1799 377.109 15.447 376.018 14.8831L375.1 16.6599ZM377.149 18.3289C377.689 18.9965 378.064 19.709 378.285 20.4698L380.205 19.9111C379.906 18.8815 379.402 17.9339 378.704 17.0715L377.149 18.3289ZM378.29 20.4857C378.543 21.3037 378.66 22.0416 378.66 22.7051H380.66C380.66 21.8061 380.501 20.8675 380.201 19.8951L378.29 20.4857ZM378.66 22.7051V26.7578H380.66V22.7051H378.66ZM414.816 35.6934V36.6934H415.816V35.6934H414.816ZM394.772 35.6934H393.772V36.6934H394.772V35.6934ZM394.772 29.2969V28.2969H393.772V29.2969H394.772ZM414.816 29.2969H415.816V28.2969H414.816V29.2969ZM417.673 50V51H418.673V50H417.673ZM388.986 48.0225L388.355 48.7977L388.362 48.8041L388.37 48.8103L388.986 48.0225ZM386.765 45.2637L385.875 45.721L385.879 45.7287L385.883 45.7362L386.765 45.2637ZM386.789 15.918L386.082 15.2109L386.072 15.221L386.062 15.2313L386.789 15.918ZM417.673 14.9902H418.673V13.9902H417.673V14.9902ZM417.673 21.3379V22.3379H418.673V21.3379H417.673ZM392.233 21.3379V20.3379H391.233V21.3379H392.233ZM417.673 43.6523H418.673V42.6523H417.673V43.6523ZM414.816 34.6934H394.772V36.6934H414.816V34.6934ZM395.772 35.6934V29.2969H393.772V35.6934H395.772ZM394.772 30.2969H414.816V28.2969H394.772V30.2969ZM413.816 29.2969V35.6934H415.816V29.2969H413.816ZM417.673 49H394.772V51H417.673V49ZM394.772 49C394.01 49 393.146 48.8655 392.176 48.5775L391.607 50.4948C392.72 50.8253 393.778 51 394.772 51V49ZM392.176 48.5775C391.26 48.3055 390.403 47.8609 389.602 47.2347L388.37 48.8103C389.36 49.5838 390.44 50.1482 391.607 50.4948L392.176 48.5775ZM389.618 47.2472C388.853 46.6242 388.193 45.8122 387.646 44.7911L385.883 45.7362C386.54 46.9613 387.361 47.9884 388.355 48.7977L389.618 47.2472ZM387.654 44.8063C387.158 43.8428 386.886 42.6174 386.886 41.0889H384.886C384.886 42.8481 385.199 44.4059 385.875 45.721L387.654 44.8063ZM386.886 41.0889V18.1885H384.886V41.0889H386.886ZM386.886 18.1885C386.886 17.8759 386.943 17.592 387.053 17.328L385.207 16.5587C384.991 17.0759 384.886 17.6222 384.886 18.1885H386.886ZM387.053 17.328C387.172 17.0434 387.327 16.8052 387.516 16.6046L386.062 15.2313C385.698 15.6166 385.414 16.0621 385.207 16.5587L387.053 17.328ZM387.496 16.6251C387.695 16.4265 387.926 16.2711 388.199 16.1575L387.43 14.3113C386.921 14.5232 386.469 14.8235 386.082 15.2109L387.496 16.6251ZM388.199 16.1575C388.459 16.0493 388.75 15.9902 389.084 15.9902V13.9902C388.506 13.9902 387.951 14.094 387.43 14.3113L388.199 16.1575ZM389.084 15.9902H417.673V13.9902H389.084V15.9902ZM416.673 14.9902V21.3379H418.673V14.9902H416.673ZM417.673 20.3379H392.233V22.3379H417.673V20.3379ZM391.233 21.3379V41.0889H393.233V21.3379H391.233ZM391.233 41.0889C391.233 42.0923 391.502 43.017 392.185 43.7003L393.6 42.2861C393.404 42.0904 393.233 41.7456 393.233 41.0889H391.233ZM392.185 43.7003C392.872 44.3869 393.808 44.6523 394.821 44.6523V42.6523C394.142 42.6523 393.792 42.4783 393.6 42.2861L392.185 43.7003ZM394.821 44.6523H417.673V42.6523H394.821V44.6523ZM416.673 43.6523V50H418.673V43.6523H416.673Z" fill="black" mask="url(#path-2-outside-1_1490_852)"/>
</svg>
